<!-- Generator: Adobe Illustrator 16.0.0, SVG Export Plug-In . SVG Version: 
6.00 Build 0)  --><!DOCTYPE svg PUBLIC "-//W3C//DTD SVG 1.1//EN" "http://www.w3.org/Graphics/SVG/1.1/DTD/svg11.dtd"><svg 
xmlns="http://www.w3.org/2000/svg" id="Layer_1" 
enable-background="new 0 0 70 70" viewBox="0 0 70 70" x="0px" y="0px" width="70px" 
height="70px" xmlns:xml="http://www.w3.org/XML/1998/namespace" xml:space="preserve" 
version="1.1"> <g><rect fill="#2258a5" y="0" width="70" height="70" />	 <g><path 
fill="#ffffff" d="M 36.33 63.646 c 0.609 -0.692 1.264 -1.428 1.718 -1.882 c 0.901 -0.901 1.833 -0.893 1.833 -0.893 s -1.064 -0.522 -2.186 0.599 c -0.301 0.302 -0.977 1.062 -1.668 1.838 c -0.25 -0.281 -0.497 -0.559 -0.726 -0.812 c 0.253 -0.279 0.491 -0.533 0.69 -0.731 c 0.901 -0.901 1.833 -0.893 1.833 -0.893 s -1.064 -0.522 -2.184 0.599 c -0.142 0.143 -0.37 0.389 -0.641 0.689 c -0.271 -0.301 -0.499 -0.547 -0.641 -0.689 c -1.121 -1.121 -2.185 -0.599 -2.185 -0.599 s 0.931 -0.009 1.833 0.893 c 0.199 0.198 0.436 0.452 0.69 0.731 c -0.229 0.254 -0.476 0.531 -0.726 0.812 c -0.692 -0.775 -1.368 -1.536 -1.669 -1.838 c -1.121 -1.121 -2.184 -0.599 -2.184 -0.599 s 0.93 -0.009 1.833 0.893 c 0.455 0.456 1.108 1.189 1.718 1.882 c -0.576 0.644 -1.125 1.253 -1.438 1.565 c -0.75 0.751 -1.624 0.808 -1.624 0.808 s 0.94 0.55 2.222 -0.76 c 0.237 -0.242 0.663 -0.725 1.142 -1.271 c 0.261 0.296 0.507 0.575 0.713 0.806 c -0.154 0.166 -0.291 0.311 -0.397 0.416 c -0.75 0.751 -1.625 0.809 -1.625 0.809 s 0.94 0.549 2.224 -0.761 c 0.034 -0.035 0.072 -0.075 0.114 -0.118 c 0.041 0.043 0.08 0.084 0.114 0.118 c 1.281 1.31 2.222 0.761 2.222 0.761 s -0.875 -0.058 -1.624 -0.809 c -0.107 -0.106 -0.244 -0.25 -0.398 -0.416 c 0.207 -0.23 0.452 -0.51 0.713 -0.806 c 0.48 0.546 0.904 1.028 1.143 1.271 c 1.281 1.31 2.222 0.76 2.222 0.76 s -0.874 -0.057 -1.624 -0.808 C 37.455 64.899 36.905 64.29 36.33 63.646 Z M 35 64.452 c -0.226 -0.247 -0.473 -0.522 -0.726 -0.806 c 0.24 -0.273 0.487 -0.552 0.726 -0.818 c 0.239 0.267 0.486 0.545 0.726 0.818 C 35.472 63.93 35.225 64.205 35 64.452 Z" 
/>		 <path fill="#ffffff" d="M 11.457 24.919 c 0.138 0.442 0.542 0.717 1.055 0.717 c 0.149 0 0.3 -0.024 0.45 -0.07 c 0.018 0.03 0.039 0.061 0.069 0.102 c 0.078 0.106 0.169 0.195 0.271 0.264 c 0.033 0.022 0.07 0.033 0.107 0.033 c 0.061 0 0.12 -0.029 0.157 -0.083 c 0.06 -0.086 0.038 -0.205 -0.049 -0.264 c -0.066 -0.045 -0.127 -0.105 -0.18 -0.176 c -0.012 -0.016 -0.019 -0.026 -0.027 -0.037 c 0.2 -0.122 0.364 -0.282 0.464 -0.472 c 0.127 -0.241 0.151 -0.504 0.071 -0.762 c -0.077 -0.246 -0.277 -0.322 -0.384 -0.329 c -0.013 -0.001 -0.025 0.005 -0.038 0.007 c -0.013 -0.062 -0.028 -0.124 -0.047 -0.185 c -0.184 -0.585 -0.714 -1.056 -1.116 -1.021 c -0.046 -0.039 -0.125 -0.088 -0.222 -0.056 c -0.098 0.029 -0.135 0.108 -0.154 0.173 c -0.1 0.057 -0.188 0.154 -0.257 0.285 c -0.171 0.326 -0.202 0.793 -0.078 1.19 c 0.019 0.061 0.042 0.121 0.067 0.179 c -0.011 0.005 -0.023 0.007 -0.033 0.015 C 11.5 24.495 11.38 24.673 11.457 24.919 Z M 13.503 24.375 c 0.02 0.13 -0.002 0.259 -0.066 0.38 c -0.105 0.201 -0.318 0.364 -0.582 0.446 c -0.116 0.036 -0.231 0.055 -0.344 0.055 c -0.31 0 -0.549 -0.135 -0.659 -0.365 c 0.122 0.031 0.248 0.037 0.325 0.037 c 0.184 0 0.379 -0.03 0.565 -0.088 C 13.057 24.741 13.341 24.565 13.503 24.375 Z M 11.963 23.222 c 0.046 -0.088 0.094 -0.129 0.126 -0.139 c 0.036 -0.012 0.064 -0.03 0.085 -0.053 c 0.03 0.006 0.064 0.005 0.101 -0.006 c 0.152 -0.046 0.586 0.273 0.738 0.754 c 0.05 0.159 0.07 0.321 0.064 0.476 c -0.106 0.08 -0.257 0.165 -0.447 0.225 c -0.149 0.046 -0.305 0.071 -0.452 0.071 c -0.016 0 -0.029 -0.001 -0.045 -0.002 c -0.093 -0.123 -0.171 -0.265 -0.221 -0.424 C 11.804 23.776 11.863 23.413 11.963 23.222 Z" 
/>		 <path fill="#ffffff" d="M 15.84 28.062 c 0.257 -0.005 0.388 -0.176 0.425 -0.276 c 0.004 -0.012 0.002 -0.024 0.004 -0.036 c 0.048 0.004 0.097 0.006 0.147 0.006 c 0.014 0 0.028 0 0.042 0 c 0.416 -0.009 0.849 -0.187 1.103 -0.453 c 0.103 -0.107 0.167 -0.222 0.188 -0.335 c 0.049 -0.033 0.117 -0.093 0.115 -0.194 c 0 -0.103 -0.066 -0.162 -0.123 -0.198 c -0.097 -0.395 -0.702 -0.744 -1.325 -0.731 c -0.064 0.001 -0.128 0.006 -0.19 0.015 c -0.002 -0.013 0 -0.026 -0.005 -0.039 c -0.04 -0.096 -0.171 -0.257 -0.434 -0.257 h 0 c -0.309 0.007 -0.585 0.149 -0.777 0.4 c -0.108 0.142 -0.182 0.314 -0.224 0.501 c -0.012 -0.004 -0.024 -0.008 -0.042 -0.013 c -0.083 -0.027 -0.159 -0.065 -0.227 -0.115 c -0.085 -0.062 -0.203 -0.044 -0.266 0.041 c -0.062 0.084 -0.044 0.204 0.041 0.266 c 0.101 0.074 0.214 0.132 0.336 0.171 c 0.048 0.016 0.084 0.025 0.118 0.033 c 0.019 0.707 0.466 1.219 1.069 1.219 C 15.815 28.062 15.838 28.062 15.84 28.062 Z M 16.424 26.222 c 0.5 -0.018 0.946 0.3 0.95 0.453 c 0 0.04 0.01 0.073 0.025 0.101 c -0.015 0.028 -0.023 0.062 -0.021 0.101 c 0 0.031 -0.023 0.09 -0.092 0.163 c -0.149 0.156 -0.475 0.328 -0.836 0.336 c -0.165 0.004 -0.327 -0.021 -0.472 -0.069 c -0.048 -0.125 -0.089 -0.294 -0.094 -0.497 c -0.004 -0.197 0.028 -0.365 0.068 -0.491 C 16.095 26.262 16.255 26.226 16.424 26.222 Z M 15.125 26.827 c -0.006 -0.246 0.06 -0.471 0.186 -0.635 c 0.074 -0.096 0.197 -0.208 0.39 -0.242 c -0.125 0.214 -0.203 0.544 -0.196 0.869 c 0.007 0.316 0.095 0.646 0.238 0.859 C 15.39 27.636 15.134 27.291 15.125 26.827 Z" 
/>		 <path fill="#ffffff" d="M 13.788 37.251 c 0.036 -0.144 0.034 -0.274 -0.003 -0.384 c 0.027 -0.053 0.056 -0.141 0.003 -0.229 c -0.051 -0.086 -0.137 -0.105 -0.205 -0.109 c -0.279 -0.294 -0.986 -0.293 -1.514 0.023 c -0.055 0.033 -0.108 0.069 -0.158 0.107 c -0.008 -0.01 -0.014 -0.023 -0.024 -0.031 c -0.018 -0.014 -0.111 -0.081 -0.252 -0.081 c -0.086 0 -0.171 0.025 -0.251 0.073 c -0.265 0.16 -0.434 0.42 -0.476 0.733 c -0.024 0.177 -0.001 0.362 0.055 0.546 c -0.013 0.002 -0.025 0.006 -0.043 0.01 c -0.086 0.018 -0.171 0.021 -0.253 0.013 c -0.104 -0.013 -0.199 0.062 -0.211 0.167 c -0.012 0.104 0.062 0.198 0.167 0.21 c 0.043 0.005 0.087 0.008 0.13 0.008 c 0.081 0 0.164 -0.009 0.246 -0.026 c 0.049 -0.011 0.085 -0.02 0.119 -0.029 c 0.25 0.412 0.641 0.658 1.047 0.658 c 0.18 0 0.351 -0.049 0.509 -0.145 c 0.22 -0.132 0.249 -0.345 0.23 -0.449 c -0.002 -0.013 -0.01 -0.022 -0.014 -0.033 c 0.056 -0.027 0.113 -0.057 0.167 -0.09 C 13.412 37.979 13.699 37.608 13.788 37.251 Z M 12.265 36.879 c 0.433 -0.26 0.971 -0.21 1.048 -0.082 c 0.02 0.036 0.046 0.061 0.074 0.078 c 0.001 0.031 0.01 0.064 0.031 0.098 c 0.016 0.027 0.025 0.09 0 0.188 c -0.051 0.209 -0.249 0.52 -0.56 0.707 c -0.142 0.086 -0.293 0.145 -0.443 0.174 c -0.104 -0.084 -0.223 -0.211 -0.328 -0.383 c -0.103 -0.172 -0.159 -0.336 -0.186 -0.467 C 11.999 37.072 12.122 36.965 12.265 36.879 Z M 11.437 38.049 c -0.127 -0.211 -0.182 -0.439 -0.154 -0.645 c 0.017 -0.121 0.069 -0.281 0.219 -0.404 c -0.003 0.249 0.093 0.574 0.261 0.854 c 0.171 0.282 0.413 0.515 0.633 0.626 C 12.072 38.619 11.668 38.434 11.437 38.049 Z" 
/>		 <path fill="#ffffff" d="M 7.156 37.648 c 0.046 0.044 0.095 0.086 0.145 0.123 c -0.006 0.01 -0.016 0.018 -0.021 0.029 c -0.04 0.099 -0.057 0.313 0.13 0.489 c 0.188 0.177 0.422 0.271 0.68 0.271 l 0 0 c 0.336 0 0.682 -0.163 0.949 -0.446 c 0.031 0.018 0.064 0.034 0.109 0.054 c 0.116 0.053 0.238 0.086 0.364 0.098 c 0.006 0 0.013 0.001 0.019 0.001 c 0.097 0 0.18 -0.073 0.189 -0.171 c 0.01 -0.105 -0.067 -0.197 -0.171 -0.208 c -0.084 -0.008 -0.167 -0.03 -0.245 -0.065 c -0.015 -0.008 -0.026 -0.013 -0.037 -0.018 c 0.114 -0.205 0.175 -0.426 0.168 -0.641 c -0.008 -0.271 -0.117 -0.514 -0.313 -0.697 C 9.005 36.354 8.882 36.33 8.8 36.33 c -0.09 0 -0.154 0.027 -0.171 0.036 c -0.012 0.006 -0.02 0.017 -0.031 0.026 c -0.042 -0.048 -0.085 -0.095 -0.132 -0.139 c -0.446 -0.417 -1.13 -0.568 -1.472 -0.341 c -0.06 -0.011 -0.153 -0.016 -0.223 0.061 c -0.07 0.073 -0.063 0.161 -0.048 0.225 c -0.059 0.1 -0.088 0.227 -0.083 0.376 C 6.65 36.943 6.854 37.365 7.156 37.648 Z M 9.057 37.176 c 0.007 0.227 -0.098 0.473 -0.288 0.673 c -0.197 0.21 -0.444 0.331 -0.678 0.331 l 0 0 c -0.128 0 -0.247 -0.037 -0.348 -0.108 c 0.24 -0.063 0.526 -0.243 0.75 -0.481 c 0.225 -0.24 0.385 -0.533 0.434 -0.777 C 9.008 36.915 9.052 37.039 9.057 37.176 Z M 7.059 36.381 c 0.026 -0.027 0.042 -0.058 0.05 -0.088 c 0.03 -0.009 0.059 -0.026 0.084 -0.056 c 0.108 -0.113 0.645 -0.05 1.012 0.294 c 0.122 0.115 0.22 0.246 0.29 0.383 c -0.054 0.122 -0.143 0.271 -0.279 0.416 c -0.136 0.145 -0.281 0.242 -0.406 0.305 c -0.138 -0.061 -0.272 -0.148 -0.393 -0.262 c -0.265 -0.248 -0.392 -0.592 -0.398 -0.809 C 7.016 36.465 7.037 36.405 7.059 36.381 Z" 
/>		 <path fill="#ffffff" d="M 15.413 47.896 c -0.039 -0.144 -0.103 -0.258 -0.188 -0.335 c -0.003 -0.06 -0.019 -0.149 -0.105 -0.197 c -0.088 -0.055 -0.174 -0.029 -0.234 0.001 c -0.387 -0.123 -1.005 0.22 -1.314 0.753 c -0.032 0.056 -0.061 0.112 -0.086 0.169 c -0.012 -0.005 -0.023 -0.014 -0.037 -0.016 c -0.01 -0.001 -0.041 -0.003 -0.05 -0.003 c -0.161 0 -0.309 0.091 -0.395 0.241 c -0.249 0.43 -0.133 0.949 0.25 1.322 c -0.009 0.008 -0.02 0.017 -0.034 0.029 c -0.066 0.057 -0.137 0.101 -0.215 0.133 c -0.097 0.041 -0.144 0.151 -0.104 0.248 c 0.03 0.074 0.101 0.118 0.176 0.118 c 0.024 0 0.049 -0.005 0.072 -0.015 c 0.116 -0.047 0.224 -0.115 0.32 -0.198 c 0.038 -0.032 0.065 -0.058 0.09 -0.083 c 0.227 0.129 0.473 0.199 0.71 0.199 c 0.389 0 0.717 -0.184 0.899 -0.502 c 0.129 -0.222 0.051 -0.422 -0.015 -0.506 c -0.008 -0.01 -0.02 -0.015 -0.029 -0.021 c 0.036 -0.052 0.071 -0.104 0.103 -0.16 C 15.436 48.715 15.508 48.254 15.413 47.896 Z M 13.899 48.308 c 0.253 -0.437 0.748 -0.652 0.879 -0.577 c 0.035 0.021 0.069 0.029 0.102 0.031 c 0.017 0.026 0.04 0.051 0.074 0.07 c 0.026 0.016 0.065 0.066 0.09 0.163 c 0.057 0.21 0.035 0.577 -0.147 0.89 c -0.082 0.141 -0.184 0.264 -0.297 0.361 c -0.135 -0.022 -0.307 -0.072 -0.479 -0.172 c -0.173 -0.1 -0.301 -0.217 -0.388 -0.316 C 13.761 48.607 13.816 48.453 13.899 48.308 Z M 13.741 49.732 c -0.348 -0.201 -0.598 -0.581 -0.451 -0.948 c 0.117 0.22 0.355 0.454 0.641 0.62 c 0.279 0.16 0.609 0.256 0.856 0.244 C 14.574 49.922 14.13 49.957 13.741 49.732 Z" 
/>		 <path fill="#ffffff" d="M 12.25 50.555 c -0.043 -0.096 -0.156 -0.139 -0.251 -0.096 c -0.075 0.034 -0.158 0.055 -0.245 0.062 c -0.019 0.002 -0.031 0.003 -0.044 0.004 c 0 -0.191 -0.032 -0.376 -0.107 -0.539 c -0.132 -0.285 -0.37 -0.485 -0.669 -0.561 c -0.219 -0.055 -0.411 0.057 -0.48 0.156 c -0.008 0.011 -0.009 0.023 -0.014 0.035 c -0.06 -0.021 -0.121 -0.04 -0.183 -0.056 c -0.593 -0.147 -1.264 0.056 -1.451 0.419 C 8.748 50 8.663 50.041 8.641 50.143 c -0.025 0.098 0.022 0.17 0.067 0.22 c -0.004 0.116 0.033 0.241 0.109 0.369 c 0.189 0.315 0.572 0.585 0.975 0.686 c 0.062 0.017 0.125 0.026 0.187 0.036 c -0.001 0.013 -0.006 0.025 -0.005 0.037 c 0.014 0.105 0.104 0.301 0.353 0.363 c 0.082 0.021 0.165 0.031 0.246 0.031 l 0 0 c 0.505 0 0.942 -0.393 1.091 -0.979 c 0.001 0 0.002 0.001 0.004 0.001 c 0.034 0 0.071 -0.003 0.119 -0.007 c 0.129 -0.012 0.253 -0.043 0.367 -0.094 C 12.25 50.764 12.293 50.65 12.25 50.555 Z M 9.144 50.536 c -0.051 -0.085 -0.062 -0.147 -0.054 -0.177 c 0.009 -0.038 0.008 -0.072 0 -0.103 c 0.021 -0.024 0.038 -0.053 0.046 -0.091 c 0.039 -0.152 0.54 -0.357 1.027 -0.236 c 0.164 0.041 0.312 0.112 0.44 0.199 c 0.012 0.132 0.005 0.303 -0.042 0.494 c -0.049 0.196 -0.127 0.354 -0.2 0.464 c -0.153 0.015 -0.315 0.004 -0.477 -0.038 C 9.534 50.961 9.255 50.722 9.144 50.536 Z M 11.299 50.807 c -0.104 0.418 -0.395 0.697 -0.724 0.697 c -0.021 0 -0.043 0 -0.065 -0.004 c 0.188 -0.18 0.347 -0.49 0.421 -0.785 c 0.078 -0.314 0.076 -0.654 0 -0.892 c 0.179 0.073 0.276 0.212 0.328 0.322 C 11.345 50.334 11.359 50.568 11.299 50.807 Z" 
/>		 <path fill="#ffffff" d="M 21.471 58.938 c 0.006 0 0.015 0 0.016 0 c 0.702 0 1.235 -0.453 1.241 -1.051 c 0.004 -0.258 -0.162 -0.395 -0.261 -0.435 c -0.012 -0.004 -0.023 -0.002 -0.035 -0.005 c 0.007 -0.062 0.012 -0.125 0.013 -0.189 c 0.005 -0.416 -0.157 -0.855 -0.414 -1.119 c -0.104 -0.105 -0.215 -0.174 -0.328 -0.199 c -0.031 -0.051 -0.09 -0.122 -0.193 -0.122 c -0.103 -0.003 -0.161 0.061 -0.199 0.115 c -0.397 0.083 -0.77 0.684 -0.779 1.298 c -0.001 0.064 0.002 0.129 0.008 0.191 c -0.013 0.002 -0.027 0 -0.04 0.004 c -0.1 0.037 -0.27 0.17 -0.271 0.426 c -0.004 0.309 0.128 0.59 0.372 0.79 c 0.138 0.114 0.307 0.192 0.492 0.241 c -0.004 0.012 -0.008 0.024 -0.015 0.041 c -0.03 0.084 -0.071 0.158 -0.122 0.221 c -0.066 0.082 -0.053 0.201 0.029 0.268 c 0.036 0.028 0.077 0.043 0.119 0.043 c 0.056 0 0.111 -0.025 0.148 -0.072 c 0.078 -0.096 0.14 -0.207 0.184 -0.33 C 21.451 59.006 21.461 58.971 21.471 58.938 Z M 21.396 56.303 L 21.396 56.303 c 0.041 0.004 0.074 -0.007 0.103 -0.022 c 0.027 0.017 0.061 0.026 0.101 0.026 c 0.031 0 0.088 0.025 0.158 0.098 c 0.151 0.154 0.311 0.486 0.306 0.848 c -0.002 0.168 -0.037 0.326 -0.091 0.471 c -0.124 0.041 -0.292 0.076 -0.493 0.076 l 0 0 c -0.198 -0.004 -0.365 -0.042 -0.49 -0.087 c -0.051 -0.146 -0.082 -0.308 -0.08 -0.476 C 20.918 56.733 21.244 56.303 21.396 56.303 Z M 20.612 57.95 c 0.21 0.135 0.537 0.222 0.885 0.229 c 0.321 0 0.637 -0.079 0.844 -0.205 c -0.059 0.384 -0.46 0.584 -0.854 0.584 h -0.018 c -0.246 -0.003 -0.469 -0.077 -0.628 -0.21 C 20.746 58.271 20.637 58.143 20.612 57.95 Z" 
/>		 <path fill="#ffffff" d="M 20.363 60.186 c -0.05 0.066 -0.112 0.126 -0.184 0.174 c -0.015 0.01 -0.025 0.017 -0.036 0.024 c -0.21 -0.377 -0.562 -0.614 -0.952 -0.614 c -0.088 0 -0.177 0.013 -0.264 0.036 c -0.248 0.067 -0.333 0.263 -0.344 0.37 c -0.001 0.014 0.004 0.025 0.005 0.039 c -0.062 0.01 -0.125 0.023 -0.187 0.04 c -0.591 0.162 -1.078 0.669 -1.062 1.077 c -0.04 0.044 -0.092 0.121 -0.063 0.223 c 0.026 0.096 0.103 0.137 0.166 0.156 c 0.054 0.104 0.148 0.195 0.277 0.27 c 0.205 0.117 0.471 0.18 0.741 0.18 c 0.15 0 0.302 -0.02 0.445 -0.059 c 0.062 -0.018 0.122 -0.037 0.181 -0.059 c 0.005 0.01 0.006 0.021 0.014 0.032 c 0.056 0.075 0.181 0.163 0.348 0.163 c 0.044 0 0.091 -0.006 0.137 -0.018 c 0.26 -0.07 0.468 -0.231 0.602 -0.467 c 0.162 -0.281 0.198 -0.651 0.101 -1.014 c 0.031 -0.018 0.062 -0.037 0.104 -0.065 c 0.106 -0.071 0.199 -0.159 0.274 -0.26 c 0.063 -0.085 0.046 -0.203 -0.037 -0.267 C 20.545 60.085 20.426 60.102 20.363 60.186 Z M 18.807 61.734 c -0.349 0.096 -0.71 0.023 -0.897 -0.084 c -0.087 -0.051 -0.127 -0.1 -0.134 -0.128 c -0.009 -0.038 -0.027 -0.068 -0.049 -0.091 c 0.007 -0.031 0.007 -0.064 -0.004 -0.102 c -0.041 -0.152 0.295 -0.576 0.781 -0.709 c 0.161 -0.044 0.324 -0.059 0.478 -0.047 c 0.076 0.109 0.155 0.264 0.208 0.456 c 0.052 0.192 0.062 0.364 0.052 0.497 C 19.114 61.617 18.969 61.69 18.807 61.734 Z M 19.858 61.564 c -0.068 0.118 -0.165 0.207 -0.286 0.258 c 0.071 -0.238 0.067 -0.577 -0.017 -0.891 c -0.081 -0.293 -0.246 -0.6 -0.437 -0.777 c 0.355 -0.043 0.684 0.238 0.803 0.677 C 19.994 61.1 19.972 61.367 19.858 61.564 Z" 
/>		 <path fill="#ffffff" d="M 31.83 64.039 c 0.128 0 0.247 -0.008 0.275 -0.1 c 0.004 -0.014 0.006 -0.027 0.005 -0.041 c 0.002 -0.006 0.003 -0.014 0.004 -0.021 c 0.007 -0.088 0.012 -0.186 -1.246 -0.416 c 0.012 -0.461 -0.014 -1.386 -0.573 -1.746 c -0.116 -0.074 -0.234 -0.111 -0.348 -0.111 c -0.319 0 -0.487 0.268 -0.599 0.444 c -0.018 0.029 -0.042 0.067 -0.063 0.097 c -0.055 -0.043 -0.081 -0.151 -0.128 -0.486 l -0.031 -0.215 c -0.052 -0.352 -0.16 -1.085 -0.908 -1.297 c -0.094 -0.026 -0.184 -0.04 -0.267 -0.04 c -0.538 0 -0.689 0.507 -0.78 0.809 c -0.033 0.108 -0.087 0.29 -0.143 0.322 c -0.095 -0.078 -0.093 -0.569 -0.092 -0.779 v -0.152 c -0.004 -0.997 -0.469 -1.569 -1.275 -1.569 c -0.083 0 -0.17 0.006 -0.246 0.017 c -0.239 0.021 -0.425 0.11 -0.554 0.269 c -0.246 0.305 -0.192 0.744 -0.144 1.133 c 0.016 0.133 0.041 0.325 0.029 0.414 c -0.029 0.01 -0.057 0.014 -0.082 0.014 c -0.132 0 -0.275 -0.146 -0.439 -0.447 c -0.299 -0.537 -0.772 -0.845 -1.299 -0.845 c -0.516 0 -1.009 0.296 -1.352 0.812 c -0.344 0.518 -0.395 1.115 -0.135 1.6 c 0.256 0.477 0.778 0.762 1.396 0.762 c 0.05 0 0.1 -0.002 0.149 -0.004 c 0.053 -0.004 0.104 -0.006 0.154 -0.006 c 0.381 0 0.521 0.104 0.599 0.271 c -0.071 0.058 -0.238 0.139 -0.355 0.193 c -0.352 0.169 -0.75 0.359 -0.85 0.741 c -0.057 0.216 -0.002 0.446 0.17 0.692 c 0.456 0.593 0.973 0.717 1.327 0.717 c 0.42 0 0.849 -0.18 1.207 -0.508 c 0.048 -0.044 0.097 -0.09 0.146 -0.136 c 0.201 -0.19 0.477 -0.45 0.635 -0.45 c 0.019 0 0.044 0.004 0.077 0.021 c 0.009 0.049 -0.054 0.203 -0.092 0.296 c -0.1 0.242 -0.224 0.544 -0.088 0.841 c 0.091 0.201 0.276 0.347 0.565 0.445 c 0.17 0.058 0.338 0.087 0.5 0.087 c 0.615 0 0.993 -0.413 1.175 -0.61 l 0.029 -0.031 c 0.062 -0.065 0.118 -0.129 0.169 -0.188 c 0.179 -0.201 0.276 -0.306 0.379 -0.306 c 0.001 0 0.002 0 0.003 0 c 0.007 0.035 0.015 0.081 0.02 0.117 c 0.034 0.226 0.106 0.775 0.774 0.707 c 0.539 -0.057 0.961 -0.534 1.258 -1.411 C 31.275 64.006 31.625 64.039 31.83 64.039 Z M 29.467 64.785 c -0.056 0.006 -0.095 -0.004 -0.096 -0.004 c -0.026 -0.026 -0.045 -0.154 -0.056 -0.223 c -0.028 -0.191 -0.077 -0.512 -0.399 -0.58 c -0.063 -0.014 -0.126 -0.021 -0.187 -0.021 c -0.364 0 -0.579 0.242 -0.805 0.498 c -0.049 0.056 -0.101 0.114 -0.159 0.176 l -0.033 0.037 c -0.156 0.168 -0.391 0.426 -0.755 0.426 c -0.1 0 -0.207 -0.02 -0.317 -0.057 c -0.123 -0.043 -0.208 -0.096 -0.229 -0.141 c -0.033 -0.074 0.039 -0.249 0.096 -0.39 c 0.104 -0.254 0.278 -0.679 -0.09 -0.958 c -0.128 -0.097 -0.27 -0.146 -0.421 -0.146 c -0.385 0 -0.711 0.308 -1.026 0.604 c -0.046 0.045 -0.093 0.088 -0.139 0.131 c -0.252 0.23 -0.544 0.358 -0.822 0.358 c -0.323 0 -0.626 -0.171 -0.867 -0.485 c -0.036 -0.051 -0.095 -0.148 -0.079 -0.209 c 0.034 -0.127 0.342 -0.275 0.545 -0.372 c 0.352 -0.169 0.833 -0.399 0.662 -0.86 c -0.258 -0.689 -0.931 -0.689 -1.152 -0.689 c -0.061 0 -0.124 0.002 -0.191 0.006 c -0.465 0.033 -0.834 -0.137 -1.005 -0.457 c -0.159 -0.295 -0.118 -0.674 0.107 -1.014 c 0.236 -0.354 0.556 -0.559 0.877 -0.559 c 0.319 0 0.603 0.197 0.8 0.551 c 0.173 0.318 0.46 0.742 0.939 0.742 c 0.113 0 0.229 -0.025 0.344 -0.073 c 0.377 -0.155 0.323 -0.601 0.274 -0.995 c -0.031 -0.248 -0.073 -0.587 0.021 -0.702 c 0.01 -0.013 0.041 -0.05 0.174 -0.062 c 0.064 -0.01 0.125 -0.014 0.183 -0.014 c 0.191 0 0.7 0 0.705 1.002 v 0.147 c -0.002 0.432 -0.004 0.921 0.257 1.183 c 0.122 0.123 0.296 0.179 0.468 0.166 c 0.418 -0.033 0.538 -0.434 0.625 -0.725 c 0.129 -0.43 0.179 -0.432 0.346 -0.385 c 0.364 0.104 0.444 0.453 0.5 0.832 l 0.031 0.211 c 0.061 0.431 0.123 0.877 0.638 0.992 c 0.03 0.006 0.06 0.009 0.09 0.009 l 0 0 c 0.266 0 0.407 -0.224 0.51 -0.388 c 0.038 -0.061 0.103 -0.162 0.112 -0.178 c 0 0 0.015 0.003 0.045 0.021 c 0.122 0.078 0.313 0.336 0.31 1.166 c -0.138 -0.023 -0.283 -0.047 -0.443 -0.072 c -2.104 -0.369 -4.767 -1.422 -5.643 -1.768 c -0.273 -0.107 -0.273 -0.107 -0.3 -0.107 c -0.028 0 -0.053 0.012 -0.071 0.031 l 0 0 c -0.006 0.008 -0.012 0.016 -0.016 0.025 c -0.004 0.008 -0.007 0.019 -0.008 0.028 c -0.001 0.015 0 0.028 0.004 0.042 c 0.061 0.178 3.505 1.818 5.938 2.248 c 0.16 0.025 0.31 0.048 0.453 0.069 C 29.951 64.579 29.667 64.764 29.467 64.785 Z" />		 <path fill="#ffffff" d="M 14.755 24.833 l 0.036 0.055 l 0.005 0.032 h 0.089 c 0.041 0 0.085 0 0.357 -0.296 c 0.353 0.19 0.83 0.407 1.278 0.407 c 0.193 0 0.365 -0.042 0.513 -0.125 c 0.159 -0.093 0.258 -0.215 0.297 -0.363 c 0.063 -0.244 -0.066 -0.46 -0.16 -0.619 c -0.016 -0.027 -0.037 -0.063 -0.054 -0.093 c 0.08 -0.024 0.248 0.037 0.443 0.103 l 0.236 0.079 c 0.166 0.056 0.416 0.14 0.691 0.14 c 0.34 0 0.624 -0.126 0.837 -0.367 c 0.163 -0.169 0.243 -0.351 0.239 -0.54 c -0.007 -0.314 -0.245 -0.54 -0.435 -0.721 c -0.072 -0.068 -0.189 -0.18 -0.215 -0.236 c 0.007 -0.009 0.017 -0.012 0.047 -0.012 c 0.169 0 0.462 0.149 0.697 0.269 l 0.104 0.053 c 0.991 0.472 1.771 0.203 2.045 -0.649 c 0.083 -0.228 0.081 -0.437 -0.007 -0.622 c -0.165 -0.346 -0.565 -0.484 -0.917 -0.606 c -0.121 -0.042 -0.295 -0.102 -0.366 -0.148 c 0.016 -0.117 0.09 -0.269 0.593 -0.271 c 0.583 -0.019 1.058 -0.277 1.301 -0.709 c 0.258 -0.459 0.226 -1.042 -0.09 -1.598 c -0.292 -0.515 -0.783 -0.823 -1.312 -0.823 c -0.596 0 -1.114 0.378 -1.382 1.003 c -0.212 0.462 -0.366 0.556 -0.545 0.557 c -0.019 -0.091 -0.017 -0.271 -0.016 -0.398 c 0.003 -0.373 0.006 -0.794 -0.251 -1.054 c -0.089 -0.09 -0.249 -0.196 -0.508 -0.196 c -0.062 0 -0.127 0.006 -0.205 0.02 c -0.544 0.112 -0.955 0.379 -1.188 0.772 c -0.229 0.384 -0.27 0.851 -0.12 1.345 c 0.02 0.072 0.042 0.147 0.065 0.223 c 0.118 0.387 0.204 0.712 0.062 0.775 c -0.047 -0.013 -0.156 -0.139 -0.221 -0.215 c -0.175 -0.202 -0.393 -0.455 -0.732 -0.455 c -0.207 0 -0.407 0.095 -0.62 0.296 c -0.664 0.67 -0.386 1.401 -0.268 1.713 l 0.015 0.041 c 0.026 0.07 0.052 0.136 0.077 0.198 c 0.118 0.301 0.145 0.398 0.102 0.483 c -0.033 -0.009 -0.074 -0.023 -0.105 -0.034 c -0.114 -0.038 -0.244 -0.082 -0.386 -0.082 c -0.155 0 -0.436 0.058 -0.586 0.441 c -0.201 0.506 0.043 1.105 0.719 1.782 C 14.706 24.725 14.736 24.792 14.755 24.833 Z M 14.725 22.815 c 0.025 -0.065 0.057 -0.076 0.056 -0.081 c 0.05 0 0.132 0.028 0.206 0.052 c 0.106 0.036 0.216 0.072 0.334 0.072 c 0.184 0 0.296 -0.09 0.36 -0.167 c 0.305 -0.381 0.16 -0.749 0.02 -1.104 c -0.023 -0.059 -0.047 -0.121 -0.072 -0.187 l -0.017 -0.044 c -0.135 -0.355 -0.234 -0.733 0.133 -1.104 c 0.128 -0.121 0.198 -0.134 0.222 -0.134 c 0.079 0 0.202 0.143 0.301 0.257 c 0.158 0.183 0.354 0.411 0.647 0.411 c 0.079 0 0.158 -0.017 0.229 -0.049 c 0.624 -0.261 0.405 -0.983 0.26 -1.461 c -0.021 -0.071 -0.043 -0.142 -0.063 -0.216 c -0.104 -0.343 -0.082 -0.652 0.062 -0.895 c 0.15 -0.251 0.432 -0.427 0.806 -0.504 c 0.036 -0.006 0.068 -0.01 0.098 -0.01 c 0.076 0 0.097 0.021 0.104 0.028 c 0.09 0.091 0.087 0.426 0.086 0.648 c -0.003 0.39 -0.007 0.923 0.47 0.967 c 0.655 0.065 0.964 -0.416 1.182 -0.89 c 0.179 -0.417 0.5 -0.665 0.861 -0.665 c 0.321 0 0.626 0.2 0.816 0.534 c 0.214 0.378 0.247 0.757 0.088 1.038 c -0.146 0.258 -0.437 0.407 -0.814 0.419 c -0.907 0.003 -1.129 0.464 -1.156 0.853 c -0.022 0.407 0.408 0.555 0.753 0.674 c 0.222 0.077 0.526 0.182 0.588 0.312 c 0.008 0.015 0.03 0.062 -0.017 0.192 c -0.145 0.45 -0.409 0.501 -0.595 0.501 c -0.186 0 -0.415 -0.062 -0.66 -0.179 l -0.097 -0.049 c -0.304 -0.155 -0.65 -0.33 -0.956 -0.33 c -0.258 0 -0.46 0.123 -0.571 0.354 c -0.173 0.381 0.139 0.679 0.346 0.875 c 0.102 0.097 0.256 0.244 0.258 0.321 c 0 0.03 -0.029 0.079 -0.087 0.141 c -0.111 0.125 -0.244 0.184 -0.419 0.184 c -0.181 0 -0.371 -0.063 -0.509 -0.11 l -0.235 -0.078 c -0.217 -0.074 -0.404 -0.137 -0.589 -0.137 c -0.217 0 -0.397 0.088 -0.533 0.259 c -0.206 0.251 -0.04 0.532 0.06 0.699 c 0.031 0.052 0.081 0.135 0.094 0.18 c -0.006 0.004 -0.014 0.01 -0.024 0.017 c -0.059 0.033 -0.136 0.049 -0.23 0.049 c -0.293 0 -0.649 -0.155 -0.892 -0.278 c 0.203 -0.239 0.464 -0.554 0.805 -0.971 c 1.266 -1.548 3.278 -3.297 4.168 -4.008 l 0.023 -0.016 c 0.346 -0.244 0.346 -0.244 0.351 -0.298 l 0.003 -0.038 l -0.053 -0.066 h -0.046 c -0.037 0 -0.057 0 -0.391 0.267 c -0.769 0.542 -3.096 2.188 -4.443 3.831 c -0.354 0.435 -0.613 0.769 -0.803 1.028 C 14.66 23.304 14.665 22.967 14.725 22.815 Z" 
/>		 <path fill="#ffffff" d="M 17.736 59.369 L 17.736 59.369 c 0.557 0 1.084 -0.416 1.358 -0.662 c 0.204 0.141 0.349 0.214 0.431 0.214 c 0.07 0 0.102 -0.042 0.112 -0.06 c 0.002 -0.003 0.004 -0.006 0.005 -0.011 c 0.013 -0.012 0.022 -0.024 0.026 -0.038 c 0.017 -0.054 0.026 -0.088 -0.299 -0.411 c 0.202 -0.327 0.749 -1.238 0.388 -1.854 c -0.15 -0.27 -0.357 -0.326 -0.504 -0.326 c -0.178 0 -0.335 0.084 -0.461 0.15 c -0.025 0.014 -0.056 0.029 -0.082 0.043 c -0.017 -0.064 0.013 -0.173 0.117 -0.449 l 0.08 -0.213 c 0.113 -0.299 0.377 -0.998 -0.167 -1.529 c -0.165 -0.182 -0.348 -0.274 -0.543 -0.274 c -0.304 0 -0.534 0.224 -0.72 0.403 c -0.077 0.075 -0.205 0.199 -0.252 0.201 c -0.06 -0.1 0.204 -0.571 0.291 -0.727 l 0.057 -0.104 c 0.274 -0.523 0.341 -0.982 0.198 -1.365 c -0.119 -0.319 -0.375 -0.558 -0.755 -0.707 c -0.119 -0.049 -0.236 -0.074 -0.347 -0.074 c -0.547 0 -0.762 0.549 -0.919 0.947 c -0.047 0.12 -0.115 0.293 -0.166 0.363 c -0.114 -0.024 -0.258 -0.109 -0.267 -0.578 c 0.022 -0.467 -0.108 -0.863 -0.379 -1.147 c -0.43 -0.451 -1.185 -0.525 -1.869 -0.173 c -0.538 0.277 -0.861 0.768 -0.863 1.311 c -0.002 0.568 0.344 1.089 0.94 1.399 c 0.486 0.218 0.555 0.378 0.542 0.548 c -0.06 0.01 -0.229 0.009 -0.396 0 c -0.103 -0.005 -0.208 -0.01 -0.311 -0.01 c -0.264 0 -0.593 0.029 -0.801 0.267 c -0.14 0.159 -0.193 0.378 -0.157 0.65 c 0.132 0.907 0.726 1.472 1.55 1.472 c 0.166 0 0.338 -0.023 0.506 -0.067 c 0.073 -0.017 0.149 -0.036 0.225 -0.057 c 0.213 -0.056 0.434 -0.113 0.599 -0.113 c 0.147 0 0.163 0.041 0.18 0.08 c -0.014 0.046 -0.143 0.148 -0.22 0.21 c -0.2 0.158 -0.449 0.357 -0.483 0.678 c -0.023 0.217 0.058 0.435 0.258 0.676 c 0.282 0.308 0.625 0.464 1.02 0.464 c 0.284 0 0.523 -0.081 0.683 -0.134 l 0.054 -0.018 c 0.073 -0.023 0.142 -0.049 0.207 -0.072 c 0.161 -0.057 0.3 -0.105 0.39 -0.105 c 0.025 0 0.05 0.002 0.084 0.024 c -0.011 0.035 -0.029 0.081 -0.042 0.116 c -0.079 0.201 -0.288 0.738 0.329 0.996 C 17.48 59.346 17.606 59.369 17.736 59.369 Z M 16.993 57.595 c -0.188 0 -0.37 0.064 -0.581 0.139 c -0.061 0.022 -0.126 0.046 -0.193 0.067 l -0.058 0.02 c -0.132 0.043 -0.312 0.104 -0.502 0.104 c -0.231 0 -0.428 -0.092 -0.59 -0.268 c -0.082 -0.1 -0.126 -0.189 -0.121 -0.242 c 0.009 -0.084 0.154 -0.199 0.271 -0.291 c 0.222 -0.177 0.558 -0.443 0.396 -0.861 c -0.062 -0.166 -0.239 -0.445 -0.71 -0.445 c -0.238 0 -0.495 0.066 -0.743 0.131 c -0.072 0.02 -0.143 0.038 -0.218 0.057 c -0.128 0.033 -0.251 0.05 -0.369 0.05 c -0.544 0 -0.894 -0.349 -0.986 -0.979 c -0.013 -0.095 -0.005 -0.166 0.021 -0.195 c 0.024 -0.027 0.104 -0.074 0.373 -0.074 c 0.093 0 0.188 0.006 0.282 0.01 c 0.098 0.006 0.192 0.01 0.28 0.01 c 0.429 0 0.665 -0.148 0.7 -0.433 c 0.112 -0.683 -0.404 -1.007 -0.85 -1.206 c -0.388 -0.203 -0.62 -0.535 -0.618 -0.885 c 0.001 -0.333 0.203 -0.627 0.554 -0.807 c 0.461 -0.238 0.937 -0.212 1.195 0.059 c 0.16 0.169 0.238 0.42 0.222 0.746 c 0.012 0.699 0.286 1.09 0.826 1.161 l 0.043 0.002 c 0.376 0 0.529 -0.388 0.663 -0.731 c 0.103 -0.26 0.229 -0.585 0.389 -0.585 c 0.035 0 0.079 0.011 0.134 0.033 c 0.231 0.091 0.374 0.214 0.435 0.378 c 0.083 0.22 0.024 0.532 -0.167 0.896 l -0.052 0.095 c -0.21 0.376 -0.448 0.802 -0.34 1.163 c 0.046 0.154 0.15 0.279 0.303 0.359 c 0.078 0.04 0.16 0.061 0.245 0.061 c 0.266 0 0.469 -0.197 0.648 -0.371 c 0.1 -0.096 0.251 -0.242 0.323 -0.242 c 0.02 0 0.062 0.023 0.133 0.1 c 0.268 0.262 0.173 0.59 0.044 0.932 l -0.08 0.215 c -0.146 0.383 -0.295 0.78 0.066 1.131 c 0.082 0.074 0.184 0.114 0.296 0.114 l 0 0 c 0.149 0 0.283 -0.071 0.401 -0.134 c 0.059 -0.031 0.158 -0.084 0.171 -0.092 c 0 0 0.011 0.01 0.032 0.047 c 0.056 0.096 0.132 0.398 -0.315 1.166 c -0.227 -0.213 -0.52 -0.484 -0.907 -0.839 c -1.08 -0.958 -2.398 -2.47 -3.92 -4.489 c -0.17 -0.227 -0.17 -0.227 -0.22 -0.227 c -0.012 0 -0.023 0.002 -0.034 0.006 c -0.031 0.012 -0.055 0.041 -0.061 0.073 c -0.034 0.186 2.062 3.384 3.888 5.011 c 0.364 0.334 0.676 0.606 0.937 0.82 c -0.352 0.297 -0.653 0.448 -0.896 0.448 c -0.061 -0.001 -0.116 -0.011 -0.161 -0.027 c -0.051 -0.022 -0.072 -0.04 -0.074 -0.04 c -0.008 -0.037 0.038 -0.156 0.063 -0.221 c 0.07 -0.18 0.188 -0.48 -0.047 -0.697 C 17.367 57.668 17.19 57.595 16.993 57.595 Z" />		 <path fill="#ffffff" d="M 9.416 46.91 c 0.086 0.018 0.167 0.031 0.244 0.045 c 0.301 0.053 0.398 0.08 0.445 0.155 c -0.025 0.023 -0.059 0.052 -0.084 0.073 c -0.163 0.137 -0.593 0.499 -0.198 1.018 c 0.22 0.289 0.577 0.436 1.061 0.436 c 0.308 0 0.6 -0.061 0.779 -0.104 c 0.204 0.434 0.273 0.438 0.324 0.438 c 0.034 0 0.065 -0.016 0.085 -0.041 l 0.041 -0.021 c 0.025 -0.035 0.058 -0.088 -0.064 -0.525 c 0.373 -0.212 1.199 -0.722 1.215 -1.402 c 0.004 -0.184 -0.048 -0.332 -0.154 -0.441 c -0.175 -0.182 -0.427 -0.185 -0.611 -0.188 c -0.031 0 -0.072 0 -0.106 -0.002 c 0.013 -0.066 0.091 -0.144 0.333 -0.344 l 0.164 -0.138 c 0.269 -0.224 0.829 -0.69 0.625 -1.429 c -0.103 -0.367 -0.351 -0.57 -0.701 -0.57 c -0.166 0 -0.334 0.045 -0.483 0.085 c -0.111 0.029 -0.226 0.06 -0.301 0.06 c -0.023 0 -0.032 -0.004 -0.035 -0.01 c 0.02 -0.119 0.428 -0.365 0.602 -0.471 l 0.125 -0.077 c 0.502 -0.312 0.788 -0.673 0.85 -1.071 c 0.053 -0.344 -0.064 -0.686 -0.335 -1.003 c -0.204 -0.274 -0.441 -0.333 -0.604 -0.333 c -0.347 0 -0.654 0.248 -0.926 0.467 c -0.102 0.083 -0.251 0.203 -0.322 0.236 c -0.093 -0.071 -0.168 -0.19 0.093 -0.646 c 0.292 -0.494 0.323 -1.025 0.085 -1.461 c -0.256 -0.468 -0.79 -0.762 -1.429 -0.783 l -0.068 -0.002 c -0.598 0 -1.103 0.279 -1.349 0.749 c -0.259 0.491 -0.192 1.106 0.179 1.647 c 0.292 0.415 0.252 0.615 0.168 0.752 c -0.085 -0.031 -0.237 -0.127 -0.343 -0.195 c -0.262 -0.168 -0.56 -0.357 -0.866 -0.357 c -0.211 0 -0.502 0.09 -0.692 0.533 c -0.181 0.5 -0.168 0.979 0.038 1.381 c 0.206 0.401 0.594 0.701 1.092 0.844 c 0.062 0.018 0.126 0.035 0.19 0.053 c 0.413 0.111 0.728 0.21 0.721 0.363 c -0.036 0.031 -0.196 0.057 -0.292 0.072 c -0.254 0.041 -0.571 0.093 -0.752 0.359 c -0.122 0.18 -0.15 0.41 -0.085 0.703 c 0.207 0.924 0.971 1.074 1.297 1.138 L 9.416 46.91 Z M 8.632 45.641 c -0.04 -0.182 -0.009 -0.245 0 -0.26 c 0.043 -0.064 0.233 -0.095 0.372 -0.117 c 0.267 -0.043 0.712 -0.115 0.76 -0.572 c 0.058 -0.654 -0.63 -0.84 -1.132 -0.977 c -0.062 -0.016 -0.122 -0.033 -0.182 -0.051 c -0.346 -0.098 -0.61 -0.295 -0.743 -0.555 c -0.132 -0.259 -0.136 -0.58 -0.015 -0.912 c 0.074 -0.174 0.136 -0.174 0.163 -0.174 c 0.139 0 0.372 0.148 0.559 0.27 c 0.238 0.151 0.463 0.295 0.689 0.295 c 0.151 0 0.286 -0.065 0.386 -0.193 c 0.458 -0.633 0.017 -1.261 -0.125 -1.464 c -0.252 -0.367 -0.304 -0.752 -0.144 -1.058 c 0.148 -0.282 0.457 -0.443 0.846 -0.443 h 0.048 c 0.435 0.016 0.789 0.199 0.948 0.488 c 0.141 0.258 0.114 0.576 -0.077 0.9 c -0.138 0.24 -0.559 0.971 0.104 1.422 c 0.08 0.058 0.174 0.088 0.273 0.088 l 0 0 c 0.243 0 0.456 -0.171 0.702 -0.369 c 0.179 -0.145 0.423 -0.342 0.569 -0.342 c 0.021 0 0.07 0 0.158 0.117 c 0.171 0.201 0.245 0.391 0.218 0.561 c -0.035 0.225 -0.238 0.458 -0.587 0.676 l -0.12 0.072 c -0.373 0.226 -0.794 0.48 -0.867 0.85 c -0.031 0.159 0.007 0.318 0.11 0.456 c 0.077 0.106 0.223 0.233 0.485 0.233 c 0.149 0 0.3 -0.041 0.447 -0.079 c 0.121 -0.032 0.245 -0.065 0.337 -0.065 c 0.063 0 0.108 0 0.151 0.152 c 0.098 0.354 -0.153 0.6 -0.44 0.839 l -0.164 0.136 c -0.326 0.271 -0.663 0.551 -0.499 1.043 c 0.107 0.306 0.434 0.311 0.628 0.312 c 0.061 0 0.158 0.002 0.203 0.014 c 0.001 0.008 0.001 0.019 0.001 0.032 c -0.003 0.141 -0.121 0.432 -0.819 0.854 c -0.096 -0.291 -0.224 -0.658 -0.397 -1.135 c -0.652 -1.87 -1.021 -4.453 -1.18 -5.555 c -0.085 -0.595 -0.085 -0.595 -0.177 -0.595 l -0.079 0.04 c -0.09 0.128 0.106 3.834 0.953 6.27 c 0.178 0.49 0.321 0.863 0.438 1.154 c -0.152 0.031 -0.351 0.064 -0.55 0.064 c -0.297 0 -0.501 -0.07 -0.607 -0.21 c -0.04 -0.052 -0.044 -0.077 -0.045 -0.077 c 0.01 -0.036 0.105 -0.115 0.156 -0.159 c 0.146 -0.123 0.391 -0.329 0.283 -0.636 c -0.153 -0.457 -0.54 -0.525 -0.914 -0.59 c -0.071 -0.012 -0.147 -0.025 -0.227 -0.041 l -0.047 -0.01 C 9.116 46.27 8.748 46.156 8.632 45.641 Z" 
/>		 <path fill="#ffffff" d="M 8.912 33.505 l 0.032 0.028 c 0.062 0.053 0.123 0.101 0.179 0.146 c 0.247 0.198 0.319 0.271 0.323 0.361 c -0.034 0.009 -0.079 0.017 -0.113 0.023 c -0.208 0.04 -0.761 0.146 -0.676 0.787 c 0.065 0.525 0.556 0.923 1.449 1.188 c -0.014 0.347 0.036 0.41 0.06 0.438 c 0.02 0.025 0.069 0.049 0.104 0.045 c 0.01 0.004 0.02 0.006 0.029 0.006 c 0.064 0 0.104 -0.006 0.205 -0.426 c 0.408 -0.002 1.385 -0.035 1.753 -0.632 c 0.095 -0.159 0.125 -0.314 0.086 -0.462 c -0.063 -0.243 -0.281 -0.369 -0.44 -0.461 c -0.026 -0.015 -0.059 -0.034 -0.087 -0.052 c 0.042 -0.048 0.147 -0.079 0.44 -0.135 l 0.225 -0.044 c 0.318 -0.059 1.062 -0.199 1.236 -0.947 c 0.179 -0.75 -0.483 -0.92 -0.802 -1.001 c -0.095 -0.025 -0.251 -0.064 -0.301 -0.101 c 0.001 -0.004 0.002 -0.005 0.003 -0.006 c 0.095 -0.104 0.542 -0.121 0.783 -0.129 l 0.116 -0.005 c 0.577 -0.035 0.997 -0.211 1.248 -0.526 c 0.215 -0.269 0.29 -0.617 0.222 -1.034 c -0.041 -0.257 -0.206 -0.689 -0.848 -0.689 c -0.187 0 -0.384 0.035 -0.557 0.065 c -0.139 0.024 -0.271 0.048 -0.364 0.048 c -0.013 0 -0.022 0 -0.03 -0.001 c -0.039 -0.113 -0.041 -0.292 0.369 -0.524 c 0.503 -0.286 0.795 -0.733 0.803 -1.228 c 0.008 -0.531 -0.313 -1.046 -0.859 -1.379 c -0.646 -0.393 -1.418 -0.312 -1.872 0.181 c -0.297 0.323 -0.438 0.78 -0.396 1.288 c 0.041 0.508 -0.026 0.668 -0.195 0.757 c -0.06 -0.07 -0.146 -0.228 -0.206 -0.339 c -0.2 -0.367 -0.449 -0.823 -0.908 -0.823 c -0.175 0 -0.352 0.071 -0.526 0.212 c -0.422 0.343 -0.656 0.764 -0.677 1.216 c -0.021 0.452 0.178 0.907 0.556 1.277 c 0.052 0.053 0.108 0.107 0.165 0.163 c 0.288 0.279 0.518 0.519 0.41 0.645 c -0.064 0 -0.181 -0.042 -0.285 -0.08 c -0.158 -0.058 -0.337 -0.123 -0.522 -0.123 c -0.242 0 -0.563 0.111 -0.722 0.646 C 8.058 32.789 8.656 33.291 8.912 33.505 Z M 8.867 32.038 c 0.07 -0.236 0.141 -0.236 0.175 -0.236 c 0.085 0 0.208 0.045 0.327 0.088 c 0.155 0.056 0.315 0.114 0.48 0.114 l 0 0 c 0.192 0 0.353 -0.08 0.459 -0.223 c 0.426 -0.531 -0.115 -1.055 -0.473 -1.401 c -0.053 -0.052 -0.106 -0.103 -0.159 -0.157 c -0.264 -0.259 -0.403 -0.56 -0.39 -0.847 c 0.014 -0.286 0.175 -0.562 0.467 -0.799 c 0.095 -0.078 0.148 -0.085 0.167 -0.085 c 0.121 0 0.301 0.33 0.408 0.526 c 0.175 0.322 0.356 0.654 0.688 0.654 l 0 0 c 0.066 0 0.131 -0.015 0.181 -0.038 c 0.688 -0.271 0.63 -0.976 0.6 -1.354 c -0.028 -0.348 0.059 -0.651 0.247 -0.856 c 0.274 -0.297 0.742 -0.333 1.157 -0.08 c 0.372 0.227 0.59 0.557 0.585 0.884 c -0.005 0.292 -0.188 0.556 -0.515 0.741 c -0.806 0.456 -0.716 1.01 -0.584 1.312 c 0.063 0.127 0.205 0.279 0.526 0.279 c 0.143 0 0.298 -0.028 0.463 -0.057 c 0.158 -0.028 0.321 -0.057 0.457 -0.057 c 0.228 0 0.263 0.066 0.286 0.209 c 0.042 0.251 0.006 0.449 -0.104 0.587 c -0.144 0.18 -0.434 0.289 -0.833 0.312 l -0.108 0.004 c -0.433 0.016 -0.925 0.035 -1.181 0.313 c -0.108 0.118 -0.162 0.27 -0.153 0.449 c 0.036 0.418 0.453 0.525 0.729 0.595 c 0.438 0.112 0.427 0.156 0.388 0.319 c -0.083 0.358 -0.419 0.449 -0.786 0.518 l -0.228 0.044 c -0.406 0.078 -0.827 0.159 -0.922 0.658 c -0.06 0.322 0.222 0.485 0.392 0.583 c 0.051 0.029 0.132 0.076 0.166 0.107 c -0.003 0.007 -0.007 0.016 -0.013 0.026 c -0.077 0.125 -0.329 0.328 -1.143 0.356 c 0.063 -0.312 0.142 -0.721 0.244 -1.261 c 0.333 -1.923 1.284 -4.336 1.689 -5.367 c 0.23 -0.584 0.23 -0.584 0.168 -0.646 c -0.017 -0.013 -0.038 -0.021 -0.06 -0.021 c -0.23 0 -1.886 3.578 -2.297 5.934 c -0.104 0.557 -0.17 0.974 -0.211 1.292 c -0.765 -0.245 -0.918 -0.527 -0.938 -0.683 c -0.009 -0.066 0 -0.091 0 -0.091 c 0.025 -0.026 0.15 -0.05 0.217 -0.063 c 0.187 -0.036 0.5 -0.096 0.56 -0.416 c 0.093 -0.481 -0.219 -0.731 -0.521 -0.974 c -0.053 -0.042 -0.109 -0.087 -0.167 -0.137 l -0.035 -0.029 C 8.99 32.827 8.72 32.547 8.867 32.038 Z" 
/>		 <path fill="#ffffff" d="M 56.689 25.406 c -0.008 0.01 -0.016 0.02 -0.026 0.035 c -0.054 0.072 -0.114 0.132 -0.181 0.177 c -0.086 0.06 -0.107 0.178 -0.049 0.264 c 0.037 0.054 0.097 0.083 0.157 0.083 c 0.037 0 0.075 -0.011 0.107 -0.033 c 0.101 -0.069 0.192 -0.158 0.272 -0.265 c 0.029 -0.041 0.051 -0.07 0.067 -0.101 c 0.149 0.046 0.302 0.07 0.45 0.07 c 0.514 0 0.918 -0.275 1.055 -0.717 c 0.077 -0.246 -0.043 -0.424 -0.127 -0.491 c -0.01 -0.008 -0.021 -0.009 -0.032 -0.015 c 0.024 -0.058 0.048 -0.118 0.066 -0.179 c 0.124 -0.397 0.095 -0.864 -0.076 -1.19 c -0.069 -0.131 -0.157 -0.229 -0.257 -0.285 c -0.016 -0.058 -0.051 -0.142 -0.148 -0.171 c -0.097 -0.033 -0.174 0.01 -0.227 0.053 c -0.404 -0.031 -0.933 0.435 -1.117 1.021 c -0.02 0.062 -0.035 0.123 -0.048 0.185 c -0.013 -0.001 -0.024 -0.008 -0.037 -0.007 c -0.107 0.006 -0.308 0.083 -0.385 0.329 c -0.092 0.294 -0.046 0.602 0.131 0.864 C 56.386 25.182 56.525 25.306 56.689 25.406 Z M 56.986 23.777 c 0.152 -0.481 0.59 -0.8 0.736 -0.755 c 0.037 0.012 0.072 0.013 0.102 0.007 c 0.022 0.022 0.051 0.042 0.088 0.054 c 0.029 0.009 0.077 0.05 0.125 0.138 c 0.1 0.191 0.158 0.554 0.05 0.901 c -0.049 0.159 -0.128 0.301 -0.221 0.423 c -0.015 0 -0.028 0.002 -0.045 0.002 c -0.146 0 -0.303 -0.024 -0.451 -0.071 c -0.19 -0.06 -0.342 -0.146 -0.448 -0.226 C 56.916 24.098 56.938 23.936 56.986 23.777 Z M 56.496 24.375 c 0.164 0.188 0.451 0.368 0.762 0.466 c 0.186 0.058 0.381 0.088 0.564 0.088 c 0.077 0 0.203 -0.006 0.325 -0.038 c -0.109 0.231 -0.35 0.365 -0.66 0.365 c -0.112 0 -0.228 -0.019 -0.345 -0.055 c -0.233 -0.072 -0.426 -0.207 -0.541 -0.379 C 56.533 24.721 56.466 24.566 56.496 24.375 Z" 
/>		 <path fill="#ffffff" d="M 55.254 26.843 c 0.034 -0.007 0.07 -0.017 0.118 -0.033 c 0.122 -0.04 0.235 -0.097 0.336 -0.171 c 0.085 -0.062 0.103 -0.181 0.04 -0.266 s -0.18 -0.103 -0.265 -0.041 c -0.067 0.05 -0.146 0.088 -0.228 0.115 c -0.018 0.006 -0.03 0.01 -0.043 0.014 c -0.117 -0.521 -0.506 -0.89 -1.015 -0.902 c -0.247 0 -0.38 0.162 -0.419 0.258 c -0.005 0.012 -0.004 0.025 -0.005 0.039 c -0.062 -0.008 -0.126 -0.013 -0.19 -0.014 c -0.617 -0.012 -1.223 0.333 -1.324 0.73 c -0.051 0.031 -0.124 0.091 -0.124 0.195 c -0.003 0.1 0.06 0.16 0.114 0.198 c 0.021 0.113 0.086 0.229 0.189 0.336 c 0.254 0.266 0.687 0.444 1.102 0.453 c 0.016 0 0.029 0 0.043 0 c 0.05 0 0.099 -0.002 0.146 -0.006 c 0.003 0.012 0 0.024 0.005 0.036 c 0.036 0.101 0.167 0.271 0.425 0.276 c 0.001 0 0.024 0 0.025 0 C 54.787 28.062 55.236 27.549 55.254 26.843 Z M 53.551 27.375 c -0.363 -0.008 -0.688 -0.18 -0.837 -0.336 c -0.069 -0.073 -0.093 -0.132 -0.093 -0.16 c 0.002 -0.04 -0.006 -0.073 -0.021 -0.102 c 0.016 -0.027 0.025 -0.059 0.025 -0.098 c 0.005 -0.157 0.45 -0.467 0.95 -0.458 c 0.169 0.004 0.329 0.041 0.472 0.097 c 0.041 0.126 0.073 0.294 0.069 0.491 c -0.005 0.203 -0.046 0.372 -0.095 0.497 C 53.877 27.354 53.717 27.379 53.551 27.375 Z M 54.26 27.677 c 0.141 -0.213 0.229 -0.543 0.236 -0.859 c 0.006 -0.324 -0.071 -0.654 -0.197 -0.869 c 0.35 0.061 0.588 0.414 0.576 0.878 C 54.865 27.29 54.611 27.634 54.26 27.677 Z" 
/>		 <path fill="#ffffff" d="M 57.328 38.766 c 0.157 0.096 0.328 0.144 0.508 0.144 c 0.407 0 0.798 -0.247 1.048 -0.658 c 0.034 0.01 0.069 0.019 0.119 0.029 c 0.082 0.018 0.163 0.026 0.245 0.026 c 0.044 0 0.087 -0.003 0.131 -0.008 c 0.104 -0.012 0.178 -0.106 0.166 -0.211 c -0.012 -0.104 -0.108 -0.18 -0.211 -0.166 c -0.082 0.01 -0.167 0.006 -0.252 -0.014 c -0.018 -0.004 -0.031 -0.006 -0.044 -0.01 c 0.057 -0.182 0.079 -0.368 0.056 -0.545 c -0.043 -0.312 -0.211 -0.573 -0.477 -0.732 c -0.08 -0.049 -0.165 -0.074 -0.251 -0.074 c -0.142 0 -0.235 0.066 -0.253 0.081 c -0.01 0.008 -0.016 0.021 -0.024 0.031 c -0.05 -0.038 -0.104 -0.074 -0.159 -0.107 c -0.523 -0.315 -1.225 -0.317 -1.511 -0.023 c -0.06 0.002 -0.152 0.017 -0.205 0.107 c -0.052 0.086 -0.028 0.169 0.001 0.229 c -0.037 0.109 -0.039 0.241 -0.004 0.385 c 0.089 0.357 0.376 0.728 0.733 0.941 c 0.054 0.033 0.11 0.062 0.167 0.09 c -0.004 0.011 -0.012 0.021 -0.014 0.033 C 57.08 38.42 57.108 38.633 57.328 38.766 Z M 58.717 37.404 c 0.027 0.205 -0.027 0.434 -0.154 0.645 c -0.231 0.385 -0.635 0.571 -0.959 0.432 c 0.221 -0.111 0.463 -0.344 0.633 -0.627 c 0.168 -0.279 0.264 -0.604 0.262 -0.854 C 58.648 37.123 58.701 37.283 58.717 37.404 Z M 56.58 37.16 c -0.023 -0.098 -0.014 -0.16 0 -0.186 c 0.021 -0.033 0.03 -0.066 0.031 -0.098 c 0.027 -0.016 0.053 -0.039 0.071 -0.074 c 0.081 -0.133 0.62 -0.184 1.052 0.076 c 0.144 0.086 0.267 0.193 0.363 0.312 c -0.026 0.131 -0.082 0.295 -0.186 0.467 c -0.105 0.172 -0.225 0.299 -0.328 0.384 c -0.15 -0.03 -0.302 -0.088 -0.443 -0.173 C 56.83 37.681 56.633 37.369 56.58 37.16 Z" 
/>		 <path fill="#ffffff" d="M 61.402 36.393 c -0.011 -0.009 -0.019 -0.02 -0.031 -0.025 c -0.018 -0.009 -0.081 -0.036 -0.17 -0.036 c -0.084 0 -0.207 0.023 -0.324 0.136 c -0.197 0.184 -0.306 0.426 -0.313 0.697 c -0.006 0.215 0.054 0.436 0.169 0.641 c -0.012 0.006 -0.022 0.011 -0.039 0.018 c -0.076 0.035 -0.158 0.057 -0.243 0.066 c -0.104 0.01 -0.181 0.103 -0.171 0.207 c 0.01 0.099 0.092 0.172 0.189 0.172 c 0.006 0 0.012 -0.001 0.019 -0.002 c 0.126 -0.012 0.249 -0.045 0.363 -0.096 c 0.047 -0.021 0.079 -0.037 0.11 -0.055 c 0.268 0.283 0.613 0.445 0.949 0.445 c 0.257 0 0.492 -0.094 0.679 -0.27 c 0.188 -0.178 0.171 -0.392 0.131 -0.49 c -0.005 -0.011 -0.014 -0.018 -0.021 -0.027 c 0.05 -0.039 0.098 -0.08 0.145 -0.123 c 0.304 -0.285 0.508 -0.707 0.518 -1.074 c 0.005 -0.149 -0.023 -0.276 -0.083 -0.375 c 0.015 -0.057 0.025 -0.148 -0.044 -0.222 c -0.068 -0.076 -0.158 -0.077 -0.225 -0.065 c -0.335 -0.229 -1.025 -0.08 -1.475 0.341 C 61.488 36.299 61.443 36.344 61.402 36.393 Z M 61.23 37.85 c -0.189 -0.201 -0.295 -0.447 -0.287 -0.674 c 0.004 -0.137 0.049 -0.26 0.13 -0.363 c 0.048 0.244 0.21 0.537 0.435 0.778 c 0.223 0.237 0.51 0.417 0.75 0.48 C 61.969 38.273 61.536 38.174 61.23 37.85 Z M 62.801 36.23 c 0.027 0.031 0.059 0.051 0.09 0.061 c 0.008 0.031 0.023 0.062 0.051 0.092 c 0.021 0.022 0.043 0.081 0.039 0.181 c -0.006 0.216 -0.133 0.561 -0.398 0.81 c -0.12 0.113 -0.256 0.202 -0.396 0.263 c -0.123 -0.063 -0.267 -0.163 -0.401 -0.306 c -0.137 -0.146 -0.227 -0.295 -0.281 -0.417 c 0.07 -0.136 0.168 -0.268 0.291 -0.382 C 62.162 36.187 62.699 36.123 62.801 36.23 Z" 
/>		 <path fill="#ffffff" d="M 56.997 48.51 c -0.087 -0.15 -0.234 -0.24 -0.395 -0.24 c -0.01 0 -0.04 0.002 -0.051 0.003 c -0.014 0.003 -0.024 0.011 -0.036 0.016 c -0.026 -0.058 -0.055 -0.115 -0.088 -0.17 c -0.306 -0.53 -0.918 -0.869 -1.311 -0.752 c -0.054 -0.028 -0.143 -0.06 -0.229 -0.006 c -0.088 0.049 -0.108 0.134 -0.112 0.201 c -0.086 0.077 -0.15 0.19 -0.189 0.335 c -0.096 0.356 -0.022 0.818 0.186 1.178 c 0.031 0.057 0.066 0.108 0.104 0.16 c -0.01 0.008 -0.021 0.012 -0.027 0.021 c -0.067 0.084 -0.146 0.283 -0.017 0.506 c 0.183 0.318 0.511 0.502 0.899 0.502 c 0.238 0 0.484 -0.068 0.711 -0.199 c 0.025 0.025 0.052 0.051 0.09 0.083 c 0.096 0.084 0.203 0.15 0.319 0.198 c 0.023 0.01 0.048 0.016 0.073 0.016 c 0.074 0 0.145 -0.045 0.175 -0.118 c 0.04 -0.098 -0.007 -0.208 -0.104 -0.249 c -0.077 -0.031 -0.15 -0.076 -0.215 -0.133 c -0.015 -0.013 -0.024 -0.021 -0.034 -0.029 C 57.13 49.459 57.245 48.939 56.997 48.51 Z M 54.953 47.996 c 0.025 -0.098 0.064 -0.148 0.09 -0.163 c 0.035 -0.019 0.057 -0.044 0.074 -0.069 c 0.031 -0.002 0.064 -0.01 0.098 -0.029 c 0.135 -0.078 0.631 0.137 0.885 0.573 c 0.084 0.146 0.139 0.3 0.166 0.45 c -0.087 0.102 -0.215 0.217 -0.387 0.316 c -0.174 0.1 -0.346 0.149 -0.48 0.172 c -0.114 -0.097 -0.216 -0.219 -0.297 -0.361 C 54.92 48.571 54.897 48.204 54.953 47.996 Z M 56.258 49.732 c -0.172 0.1 -0.354 0.151 -0.527 0.151 c -0.219 0 -0.398 -0.083 -0.52 -0.235 c 0.25 0.012 0.578 -0.084 0.857 -0.245 c 0.285 -0.165 0.523 -0.399 0.641 -0.619 C 56.855 49.151 56.605 49.531 56.258 49.732 Z" 
/>		 <path fill="#ffffff" d="M 61.196 49.982 c -0.183 -0.363 -0.857 -0.568 -1.454 -0.421 c -0.062 0.015 -0.123 0.034 -0.183 0.056 c -0.005 -0.012 -0.007 -0.025 -0.014 -0.035 c -0.069 -0.1 -0.262 -0.211 -0.481 -0.156 c -0.299 0.076 -0.537 0.275 -0.668 0.562 c -0.076 0.162 -0.109 0.347 -0.108 0.538 c -0.013 0 -0.025 -0.002 -0.044 -0.004 c -0.088 -0.007 -0.168 -0.027 -0.244 -0.062 c -0.096 -0.042 -0.209 0 -0.252 0.098 c -0.043 0.096 0 0.207 0.097 0.25 c 0.114 0.052 0.237 0.083 0.366 0.094 c 0.049 0.005 0.086 0.008 0.12 0.008 c 0.001 0 0.003 0 0.003 0 c 0.148 0.584 0.586 0.977 1.09 0.977 c 0.082 0 0.165 -0.01 0.246 -0.031 c 0.25 -0.062 0.34 -0.258 0.354 -0.362 c 0.002 -0.013 -0.004 -0.025 -0.004 -0.038 c 0.062 -0.009 0.124 -0.02 0.186 -0.035 c 0.404 -0.102 0.787 -0.37 0.976 -0.686 c 0.077 -0.127 0.113 -0.253 0.11 -0.369 c 0.041 -0.042 0.094 -0.117 0.068 -0.213 C 61.338 50.049 61.26 50.005 61.196 49.982 Z M 58.701 50.807 c -0.061 -0.238 -0.047 -0.473 0.04 -0.661 c 0.052 -0.11 0.147 -0.249 0.327 -0.322 c -0.075 0.237 -0.078 0.577 0 0.892 c 0.074 0.295 0.233 0.605 0.421 0.785 C 59.131 51.54 58.811 51.252 58.701 50.807 Z M 60.855 50.537 c -0.111 0.185 -0.391 0.424 -0.742 0.512 c -0.16 0.041 -0.322 0.053 -0.475 0.037 c -0.074 -0.111 -0.152 -0.267 -0.201 -0.463 c -0.049 -0.191 -0.055 -0.363 -0.043 -0.495 c 0.129 -0.087 0.275 -0.157 0.439 -0.198 c 0.488 -0.121 0.989 0.084 1.027 0.23 c 0.008 0.04 0.025 0.07 0.047 0.094 c -0.008 0.031 -0.01 0.066 0 0.104 C 60.916 50.389 60.906 50.451 60.855 50.537 Z" 
/>		 <path fill="#ffffff" d="M 48.924 58.925 c -0.006 -0.017 -0.011 -0.03 -0.016 -0.042 c 0.517 -0.138 0.871 -0.534 0.865 -1.031 c -0.003 -0.257 -0.172 -0.389 -0.271 -0.425 c -0.014 -0.005 -0.027 -0.003 -0.04 -0.005 c 0.005 -0.062 0.009 -0.127 0.007 -0.191 c -0.01 -0.611 -0.378 -1.209 -0.777 -1.297 c -0.032 -0.047 -0.092 -0.117 -0.193 -0.117 c -0.102 0.005 -0.164 0.064 -0.199 0.122 c -0.113 0.025 -0.225 0.095 -0.329 0.2 c -0.257 0.264 -0.42 0.703 -0.415 1.119 c 0.002 0.064 0.006 0.127 0.014 0.189 c -0.012 0.002 -0.023 0 -0.035 0.005 c -0.1 0.04 -0.265 0.177 -0.262 0.433 c 0.007 0.601 0.541 1.053 1.242 1.053 c 0.001 0 0.01 0 0.016 0 c 0.009 0.033 0.02 0.068 0.037 0.115 c 0.045 0.123 0.105 0.234 0.184 0.33 c 0.037 0.047 0.092 0.071 0.148 0.071 c 0.041 0 0.084 -0.014 0.119 -0.042 c 0.081 -0.066 0.094 -0.186 0.028 -0.268 C 48.994 59.082 48.953 59.008 48.924 58.925 Z M 48.24 56.404 c 0.07 -0.071 0.129 -0.098 0.157 -0.098 c 0.04 0 0.073 -0.01 0.101 -0.025 c 0.025 0.014 0.057 0.021 0.091 0.021 c 0.003 0 0.005 0 0.009 0 c 0.158 0 0.484 0.431 0.491 0.934 c 0.002 0.168 -0.028 0.329 -0.079 0.475 c -0.127 0.047 -0.3 0.084 -0.508 0.088 c -0.191 0 -0.354 -0.034 -0.477 -0.076 c -0.055 -0.144 -0.088 -0.303 -0.091 -0.471 C 47.93 56.891 48.09 56.559 48.24 56.404 Z M 47.659 57.973 c 0.208 0.127 0.526 0.205 0.866 0.205 l 0 0 c 0.33 -0.005 0.652 -0.094 0.861 -0.228 c -0.047 0.352 -0.392 0.601 -0.855 0.607 h -0.018 C 48.119 58.558 47.719 58.357 47.659 57.973 Z" 
/>		 <path fill="#ffffff" d="M 51.596 60.254 c -0.062 -0.016 -0.123 -0.029 -0.186 -0.039 c 0.001 -0.014 0.006 -0.026 0.004 -0.039 c -0.01 -0.107 -0.096 -0.303 -0.343 -0.37 c -0.087 -0.024 -0.177 -0.036 -0.265 -0.036 c -0.389 0 -0.74 0.237 -0.951 0.613 c -0.011 -0.006 -0.021 -0.014 -0.036 -0.023 c -0.071 -0.048 -0.134 -0.107 -0.185 -0.174 c -0.062 -0.084 -0.182 -0.101 -0.266 -0.037 s -0.1 0.182 -0.037 0.266 c 0.077 0.102 0.17 0.188 0.275 0.26 c 0.041 0.028 0.072 0.049 0.103 0.065 c -0.097 0.363 -0.061 0.733 0.101 1.015 c 0.135 0.234 0.343 0.395 0.602 0.467 c 0.047 0.012 0.093 0.018 0.139 0.018 c 0.166 0 0.291 -0.088 0.348 -0.164 c 0.007 -0.01 0.008 -0.021 0.014 -0.033 c 0.059 0.023 0.118 0.043 0.18 0.06 c 0.143 0.039 0.295 0.058 0.445 0.058 c 0.271 0 0.536 -0.061 0.741 -0.179 c 0.128 -0.074 0.222 -0.165 0.276 -0.269 c 0.057 -0.017 0.139 -0.056 0.166 -0.156 c 0.027 -0.098 -0.018 -0.172 -0.062 -0.223 C 52.678 60.928 52.189 60.417 51.596 60.254 Z M 50.427 61.822 c -0.12 -0.052 -0.218 -0.14 -0.286 -0.258 c -0.113 -0.197 -0.135 -0.465 -0.062 -0.734 c 0.111 -0.406 0.404 -0.681 0.73 -0.681 c 0.023 0 0.049 0.002 0.072 0.005 c -0.191 0.179 -0.356 0.486 -0.438 0.777 C 50.359 61.245 50.355 61.584 50.427 61.822 Z M 52.273 61.43 c -0.021 0.023 -0.039 0.053 -0.049 0.091 c -0.008 0.03 -0.047 0.079 -0.135 0.13 c -0.188 0.106 -0.548 0.179 -0.898 0.083 c -0.16 -0.043 -0.305 -0.116 -0.432 -0.206 c -0.01 -0.132 -0.002 -0.303 0.051 -0.496 s 0.133 -0.347 0.207 -0.456 c 0.154 -0.013 0.318 0.003 0.479 0.046 c 0.486 0.133 0.822 0.557 0.782 0.704 C 52.267 61.363 52.267 61.398 52.273 61.43 Z" 
/>		 <path fill="#ffffff" d="M 47.073 59.289 c -0.527 0 -1 0.308 -1.3 0.846 c -0.163 0.301 -0.307 0.445 -0.438 0.445 c -0.024 0 -0.052 -0.004 -0.082 -0.013 c -0.011 -0.089 0.013 -0.282 0.029 -0.415 c 0.048 -0.388 0.103 -0.828 -0.144 -1.131 c -0.129 -0.159 -0.316 -0.25 -0.539 -0.268 c -0.961 -0.131 -1.531 0.45 -1.535 1.551 v 0.152 c 0.001 0.211 0.003 0.701 -0.105 0.78 c -0.043 -0.033 -0.098 -0.215 -0.13 -0.323 c -0.091 -0.303 -0.241 -0.809 -0.78 -0.809 c -0.083 0 -0.173 0.014 -0.268 0.04 c -0.748 0.213 -0.855 0.945 -0.908 1.298 l -0.031 0.215 c -0.046 0.336 -0.072 0.443 -0.127 0.486 c -0.021 -0.03 -0.045 -0.068 -0.064 -0.098 c -0.11 -0.177 -0.279 -0.443 -0.598 -0.443 c -0.115 0 -0.232 0.037 -0.35 0.111 c -0.559 0.359 -0.584 1.283 -0.572 1.744 c -1.258 0.232 -1.253 0.33 -1.246 0.417 c 0.001 0.008 0.002 0.015 0.004 0.022 c 0 0.014 0.002 0.027 0.006 0.041 c 0.029 0.091 0.146 0.098 0.275 0.098 c 0.205 0 0.555 -0.032 1.045 -0.098 c 0.297 0.877 0.719 1.355 1.258 1.411 c 0.036 0.005 0.071 0.006 0.104 0.006 c 0.562 0 0.638 -0.5 0.669 -0.714 c 0.006 -0.034 0.014 -0.081 0.021 -0.116 c 0.001 0 0.002 0 0.003 0 c 0.104 0 0.201 0.105 0.379 0.307 c 0.053 0.06 0.108 0.122 0.168 0.187 l 0.031 0.033 c 0.182 0.197 0.561 0.609 1.176 0.609 c 0.162 0 0.33 -0.029 0.5 -0.087 c 0.289 -0.098 0.474 -0.243 0.564 -0.444 c 0.135 -0.297 0.012 -0.6 -0.088 -0.842 c -0.038 -0.092 -0.102 -0.246 -0.096 -0.285 c 0.036 -0.027 0.061 -0.031 0.08 -0.031 c 0.159 0 0.435 0.26 0.635 0.449 c 0.049 0.047 0.098 0.092 0.145 0.136 c 0.358 0.328 0.787 0.509 1.208 0.509 c 0.354 0 0.871 -0.125 1.333 -0.729 c 0.166 -0.236 0.221 -0.465 0.164 -0.682 c -0.101 -0.381 -0.498 -0.572 -0.851 -0.74 c -0.116 -0.057 -0.284 -0.137 -0.354 -0.193 c 0.077 -0.17 0.218 -0.271 0.599 -0.271 c 0.05 0 0.101 0.002 0.151 0.004 c 0.696 0.049 1.271 -0.24 1.547 -0.756 c 0.26 -0.484 0.209 -1.082 -0.135 -1.6 C 48.082 59.585 47.59 59.289 47.073 59.289 Z M 48.059 61.43 c -0.158 0.293 -0.482 0.463 -0.894 0.463 c -0.036 0 -0.073 -0.002 -0.114 -0.005 c -0.065 -0.005 -0.129 -0.007 -0.189 -0.007 c -0.221 0 -0.895 0 -1.152 0.691 c -0.171 0.459 0.311 0.69 0.662 0.858 c 0.203 0.098 0.512 0.245 0.545 0.372 c 0.016 0.062 -0.043 0.158 -0.071 0.199 c -0.248 0.324 -0.55 0.495 -0.874 0.495 c -0.277 0 -0.568 -0.128 -0.822 -0.359 c -0.046 -0.042 -0.092 -0.085 -0.139 -0.129 c -0.314 -0.298 -0.641 -0.605 -1.026 -0.605 c -0.151 0 -0.294 0.049 -0.424 0.146 c -0.366 0.279 -0.192 0.704 -0.087 0.958 c 0.057 0.141 0.129 0.315 0.096 0.389 c -0.021 0.046 -0.107 0.099 -0.229 0.141 c -0.11 0.037 -0.218 0.057 -0.316 0.057 c -0.364 0 -0.601 -0.257 -0.756 -0.426 l -0.034 -0.038 c -0.057 -0.06 -0.108 -0.118 -0.158 -0.173 c -0.227 -0.258 -0.441 -0.5 -0.805 -0.5 c -0.061 0 -0.123 0.008 -0.184 0.021 c -0.326 0.068 -0.375 0.39 -0.403 0.58 c -0.011 0.069 -0.029 0.197 -0.054 0.222 c 0 0.001 -0.037 0.011 -0.098 0.005 c -0.2 -0.021 -0.484 -0.205 -0.745 -0.928 c 0.144 -0.021 0.294 -0.045 0.454 -0.07 c 2.434 -0.43 5.877 -2.069 5.938 -2.248 c 0.004 -0.014 0.006 -0.027 0.004 -0.041 c 0 -0.011 -0.004 -0.02 -0.007 -0.029 c -0.005 -0.009 -0.01 -0.018 -0.017 -0.025 c -0.018 -0.02 -0.043 -0.031 -0.07 -0.031 s -0.027 0 -0.301 0.108 c -0.875 0.345 -3.538 1.398 -5.641 1.767 c -0.161 0.025 -0.307 0.05 -0.445 0.072 c -0.004 -0.829 0.188 -1.086 0.309 -1.164 c 0.017 -0.01 0.028 -0.016 0.033 -0.02 c 0.035 0.029 0.092 0.119 0.126 0.176 c 0.115 0.182 0.272 0.448 0.604 0.377 c 0.512 -0.115 0.574 -0.561 0.634 -0.992 l 0.03 -0.21 c 0.057 -0.38 0.137 -0.729 0.499 -0.833 c 0.169 -0.047 0.218 -0.046 0.347 0.385 c 0.088 0.292 0.207 0.691 0.623 0.725 c 0.191 0.016 0.348 -0.043 0.471 -0.166 c 0.262 -0.262 0.259 -0.75 0.257 -1.182 v -0.148 c 0.005 -1.002 0.513 -1.002 0.704 -1.002 c 0.059 0 0.119 0.005 0.197 0.016 c 0.119 0.01 0.15 0.047 0.16 0.06 c 0.094 0.116 0.052 0.455 0.021 0.702 c -0.049 0.395 -0.104 0.841 0.272 0.995 c 0.117 0.048 0.232 0.073 0.345 0.073 c 0.479 0 0.766 -0.424 0.938 -0.74 c 0.198 -0.355 0.482 -0.552 0.801 -0.552 c 0.322 0 0.643 0.203 0.877 0.558 C 48.177 60.756 48.217 61.135 48.059 61.43 Z" 
/>		 <path fill="#ffffff" d="M 57.016 54.234 c -0.102 0 -0.207 0.006 -0.311 0.012 c -0.168 0.008 -0.337 0.01 -0.396 0 c -0.014 -0.165 0.053 -0.328 0.56 -0.556 c 0.579 -0.304 0.926 -0.824 0.924 -1.392 c -0.002 -0.544 -0.323 -1.035 -0.862 -1.312 c -0.685 -0.353 -1.44 -0.278 -1.87 0.173 c -0.271 0.284 -0.401 0.682 -0.38 1.129 c -0.008 0.504 -0.164 0.578 -0.266 0.599 c -0.051 -0.068 -0.118 -0.243 -0.166 -0.364 c -0.157 -0.399 -0.372 -0.947 -0.92 -0.947 c -0.109 0 -0.227 0.025 -0.34 0.072 c -0.387 0.15 -0.643 0.389 -0.762 0.709 c -0.143 0.382 -0.076 0.842 0.201 1.371 l 0.054 0.097 c 0.085 0.151 0.335 0.601 0.276 0.729 c -0.059 -0.029 -0.169 -0.137 -0.238 -0.203 c -0.186 -0.18 -0.416 -0.404 -0.721 -0.404 c -0.195 0 -0.378 0.094 -0.53 0.262 c -0.557 0.545 -0.292 1.244 -0.179 1.543 l 0.08 0.213 c 0.105 0.279 0.134 0.387 0.117 0.449 c -0.027 -0.014 -0.058 -0.03 -0.082 -0.043 c -0.127 -0.066 -0.283 -0.15 -0.462 -0.15 c -0.147 0 -0.354 0.057 -0.501 0.32 c -0.363 0.621 0.184 1.533 0.385 1.86 c -0.324 0.321 -0.315 0.356 -0.299 0.41 c 0.005 0.014 0.014 0.033 0.033 0.048 c 0.008 0.014 0.016 0.025 0.025 0.033 c 0.018 0.014 0.064 0.027 0.086 0.027 c 0.081 0 0.227 -0.072 0.43 -0.214 c 0.275 0.247 0.803 0.663 1.359 0.663 c 0.13 0 0.256 -0.023 0.379 -0.071 c 0.611 -0.254 0.402 -0.792 0.323 -0.993 c -0.015 -0.035 -0.032 -0.082 -0.042 -0.117 c 0.033 -0.021 0.059 -0.023 0.084 -0.023 c 0.09 0 0.229 0.049 0.39 0.105 c 0.065 0.023 0.134 0.049 0.209 0.073 l 0.052 0.017 c 0.16 0.054 0.4 0.134 0.684 0.134 c 0.395 0 0.737 -0.156 1.029 -0.476 c 0.189 -0.229 0.271 -0.447 0.248 -0.664 c -0.035 -0.32 -0.283 -0.518 -0.483 -0.678 c -0.077 -0.062 -0.207 -0.164 -0.217 -0.213 c 0.013 -0.035 0.029 -0.077 0.177 -0.077 c 0.164 0 0.385 0.058 0.6 0.113 c 0.076 0.021 0.151 0.04 0.217 0.056 c 0.176 0.046 0.348 0.068 0.513 0.068 c 0.825 0 1.419 -0.563 1.552 -1.475 c 0.036 -0.27 -0.018 -0.486 -0.158 -0.646 C 57.609 54.266 57.279 54.234 57.016 54.234 Z M 57.41 55.07 c -0.112 0.771 -0.605 1.129 -1.361 0.932 c -0.068 -0.016 -0.139 -0.035 -0.211 -0.054 c -0.248 -0.065 -0.505 -0.132 -0.742 -0.132 c -0.473 0 -0.648 0.279 -0.71 0.444 c -0.163 0.419 0.173 0.687 0.396 0.862 c 0.115 0.094 0.261 0.209 0.271 0.292 c 0.005 0.054 -0.038 0.142 -0.11 0.23 c -0.172 0.188 -0.369 0.279 -0.6 0.279 c -0.191 0 -0.371 -0.06 -0.503 -0.104 l -0.056 -0.018 c -0.068 -0.023 -0.134 -0.047 -0.195 -0.067 c -0.21 -0.075 -0.393 -0.14 -0.58 -0.14 c -0.197 0 -0.375 0.074 -0.521 0.216 c -0.239 0.222 -0.122 0.522 -0.052 0.701 c 0.024 0.064 0.071 0.185 0.065 0.216 c -0.004 0.006 -0.024 0.023 -0.069 0.043 c -0.261 0.1 -0.622 -0.045 -1.063 -0.418 c 0.261 -0.213 0.572 -0.486 0.937 -0.819 c 1.828 -1.628 3.923 -4.826 3.89 -5.012 c -0.006 -0.032 -0.029 -0.062 -0.061 -0.073 c -0.011 -0.004 -0.022 -0.006 -0.034 -0.006 c -0.051 0 -0.051 0 -0.221 0.225 c -1.521 2.021 -2.84 3.531 -3.921 4.492 c -0.386 0.354 -0.679 0.625 -0.905 0.838 c -0.447 -0.768 -0.373 -1.07 -0.312 -1.174 c 0.009 -0.015 0.016 -0.025 0.018 -0.031 c 0.043 0.01 0.129 0.055 0.183 0.084 c 0.118 0.062 0.252 0.133 0.401 0.133 c 0.112 0 0.215 -0.039 0.301 -0.119 c 0.357 -0.345 0.207 -0.741 0.062 -1.125 l -0.08 -0.213 c -0.129 -0.344 -0.224 -0.672 0.057 -0.947 c 0.058 -0.064 0.101 -0.087 0.119 -0.087 c 0.074 0 0.225 0.147 0.324 0.243 c 0.179 0.174 0.382 0.371 0.648 0.371 c 0.085 0 0.167 -0.021 0.246 -0.062 c 0.152 -0.078 0.256 -0.203 0.303 -0.358 c 0.107 -0.362 -0.131 -0.788 -0.341 -1.163 l -0.05 -0.088 c -0.193 -0.37 -0.252 -0.682 -0.17 -0.902 c 0.062 -0.164 0.203 -0.287 0.441 -0.38 c 0.049 -0.021 0.093 -0.031 0.127 -0.031 c 0.159 0 0.287 0.325 0.389 0.586 c 0.135 0.343 0.287 0.731 0.663 0.731 l 0.055 -0.004 c 0.528 -0.069 0.804 -0.461 0.815 -1.18 c -0.016 -0.307 0.062 -0.558 0.223 -0.727 c 0.258 -0.271 0.734 -0.297 1.194 -0.059 c 0.352 0.18 0.553 0.475 0.554 0.807 c 0.002 0.35 -0.23 0.682 -0.602 0.877 c -0.463 0.206 -0.979 0.531 -0.867 1.203 c 0.036 0.294 0.273 0.443 0.701 0.443 c 0.088 0 0.182 -0.005 0.28 -0.01 c 0.093 -0.005 0.188 -0.01 0.282 -0.01 c 0.269 0 0.348 0.047 0.373 0.074 C 57.414 54.908 57.422 54.979 57.41 55.07 Z" 
/>		 <path fill="#ffffff" d="M 62.144 41.455 c -0.306 0 -0.604 0.189 -0.866 0.357 c -0.105 0.067 -0.258 0.164 -0.343 0.195 c -0.085 -0.143 -0.12 -0.343 0.17 -0.755 c 0.369 -0.538 0.436 -1.153 0.178 -1.645 c -0.247 -0.47 -0.751 -0.749 -1.351 -0.749 l -0.068 0.002 c -0.638 0.022 -1.172 0.315 -1.428 0.783 c -0.238 0.436 -0.207 0.967 0.084 1.458 c 0.257 0.446 0.191 0.571 0.097 0.647 c -0.078 -0.036 -0.224 -0.153 -0.323 -0.234 c -0.272 -0.219 -0.58 -0.467 -0.928 -0.467 c -0.162 0 -0.399 0.058 -0.59 0.317 c -0.284 0.333 -0.401 0.675 -0.349 1.019 c 0.062 0.398 0.348 0.76 0.851 1.072 l 0.125 0.076 c 0.174 0.105 0.582 0.352 0.6 0.477 c 0 0 -0.01 0.004 -0.033 0.004 c -0.074 0 -0.189 -0.03 -0.301 -0.06 c -0.148 -0.04 -0.316 -0.085 -0.482 -0.085 c -0.35 0 -0.599 0.203 -0.701 0.571 c -0.204 0.738 0.357 1.204 0.627 1.429 l 0.162 0.137 c 0.244 0.202 0.322 0.279 0.334 0.343 c -0.035 0.003 -0.075 0.003 -0.107 0.003 c -0.184 0.003 -0.437 0.006 -0.611 0.188 c -0.106 0.109 -0.158 0.258 -0.154 0.443 c 0.017 0.68 0.842 1.188 1.215 1.4 c -0.121 0.438 -0.088 0.49 -0.063 0.525 l 0.089 0.046 l 0.01 -0.003 l 0.026 0.018 c 0.052 0 0.12 -0.002 0.324 -0.436 c 0.18 0.043 0.472 0.103 0.779 0.103 c 0.483 0 0.841 -0.146 1.062 -0.435 c 0.395 -0.519 -0.036 -0.882 -0.199 -1.018 c -0.025 -0.021 -0.059 -0.051 -0.084 -0.074 c 0.047 -0.074 0.142 -0.102 0.445 -0.154 c 0.077 -0.014 0.158 -0.027 0.243 -0.045 l 0.044 -0.01 c 0.326 -0.063 1.09 -0.213 1.297 -1.138 c 0.064 -0.292 0.036 -0.522 -0.086 -0.702 c -0.182 -0.268 -0.498 -0.318 -0.752 -0.359 c -0.096 -0.016 -0.256 -0.041 -0.283 -0.06 c -0.015 -0.166 0.3 -0.265 0.713 -0.376 c 0.064 -0.018 0.127 -0.035 0.189 -0.053 c 0.499 -0.143 0.887 -0.442 1.094 -0.844 c 0.205 -0.403 0.219 -0.881 0.031 -1.398 C 62.646 41.545 62.355 41.455 62.144 41.455 Z M 58.061 48.836 c 0.005 -0.005 0.01 -0.012 0.015 -0.018 c 0.003 0.004 0.009 0.007 0.011 0.014 L 58.061 48.836 Z M 62.291 43.109 c -0.133 0.26 -0.396 0.457 -0.744 0.557 c -0.059 0.016 -0.119 0.033 -0.181 0.05 c -0.501 0.136 -1.188 0.321 -1.131 0.98 c 0.047 0.453 0.493 0.524 0.76 0.568 c 0.139 0.022 0.328 0.054 0.372 0.116 c 0.01 0.016 0.04 0.078 0 0.259 c -0.115 0.518 -0.484 0.631 -0.852 0.703 l -0.047 0.009 c -0.08 0.017 -0.155 0.029 -0.227 0.043 c -0.374 0.064 -0.761 0.132 -0.912 0.586 c -0.109 0.311 0.135 0.516 0.281 0.639 c 0.052 0.044 0.148 0.124 0.156 0.156 c 0 0 -0.003 0.025 -0.045 0.08 c -0.105 0.14 -0.311 0.211 -0.607 0.211 c -0.199 0 -0.398 -0.033 -0.55 -0.065 c 0.118 -0.29 0.261 -0.663 0.438 -1.153 c 0.846 -2.436 1.043 -6.143 0.952 -6.27 l -0.078 -0.039 c -0.093 0 -0.093 0 -0.178 0.592 c -0.157 1.104 -0.526 3.686 -1.179 5.555 c -0.174 0.478 -0.302 0.846 -0.398 1.137 c -0.698 -0.423 -0.814 -0.713 -0.818 -0.854 c 0 -0.014 0 -0.025 0.001 -0.033 c 0.046 -0.012 0.142 -0.014 0.202 -0.014 c 0.195 -0.003 0.521 -0.007 0.631 -0.317 c 0.162 -0.487 -0.175 -0.768 -0.501 -1.038 l -0.162 -0.136 c -0.288 -0.239 -0.539 -0.484 -0.44 -0.839 c 0.042 -0.152 0.088 -0.152 0.15 -0.152 c 0.092 0 0.217 0.033 0.337 0.064 c 0.147 0.039 0.298 0.08 0.446 0.08 c 0.262 0 0.408 -0.128 0.482 -0.23 c 0.105 -0.141 0.144 -0.301 0.111 -0.461 c -0.071 -0.368 -0.494 -0.623 -0.865 -0.849 l -0.119 -0.071 c -0.35 -0.219 -0.553 -0.451 -0.588 -0.676 c -0.026 -0.172 0.047 -0.36 0.23 -0.576 c 0.076 -0.102 0.125 -0.102 0.146 -0.102 c 0.145 0 0.39 0.197 0.568 0.341 c 0.246 0.198 0.459 0.37 0.702 0.37 c 0.099 0 0.193 -0.031 0.265 -0.084 c 0.67 -0.455 0.25 -1.188 0.11 -1.43 c -0.189 -0.321 -0.216 -0.641 -0.075 -0.897 c 0.158 -0.29 0.513 -0.473 0.947 -0.487 l 0.049 -0.002 c 0.389 0 0.697 0.162 0.846 0.445 c 0.16 0.305 0.108 0.689 -0.142 1.054 c -0.146 0.206 -0.586 0.833 -0.12 1.477 c 0.093 0.118 0.228 0.185 0.379 0.185 c 0.227 0 0.451 -0.145 0.689 -0.297 c 0.188 -0.119 0.42 -0.268 0.559 -0.268 c 0.026 0 0.088 0 0.157 0.156 C 62.426 42.53 62.424 42.852 62.291 43.109 Z" 
/>		 <path fill="#ffffff" d="M 58.373 27.039 c -0.455 -0.493 -1.227 -0.574 -1.873 -0.181 c -0.546 0.333 -0.866 0.849 -0.858 1.379 c 0.009 0.495 0.301 0.943 0.805 1.229 c 0.42 0.238 0.405 0.419 0.369 0.523 c -0.008 0 -0.019 0.001 -0.03 0.001 c -0.094 0 -0.226 -0.023 -0.365 -0.048 c -0.174 -0.03 -0.369 -0.065 -0.557 -0.065 c -0.643 0 -0.807 0.432 -0.848 0.688 c -0.068 0.417 0.006 0.766 0.222 1.035 c 0.251 0.314 0.671 0.491 1.253 0.526 l 0.111 0.004 c 0.24 0.009 0.688 0.026 0.782 0.129 c 0.001 0.001 0.003 0.003 0.003 0.006 c -0.051 0.036 -0.205 0.076 -0.301 0.101 c -0.318 0.081 -0.98 0.251 -0.803 1 c 0.175 0.75 0.919 0.889 1.236 0.948 l 0.225 0.044 c 0.294 0.056 0.398 0.087 0.441 0.135 c -0.027 0.018 -0.062 0.037 -0.088 0.052 c -0.158 0.092 -0.377 0.218 -0.439 0.461 c -0.038 0.148 -0.009 0.305 0.087 0.466 c 0.366 0.594 1.345 0.628 1.752 0.63 c 0.101 0.423 0.142 0.425 0.206 0.425 c 0.012 0 0.021 -0.002 0.031 -0.004 c 0.026 -0.002 0.08 -0.022 0.1 -0.047 c 0.025 -0.028 0.074 -0.092 0.06 -0.438 c 0.894 -0.263 1.384 -0.662 1.448 -1.186 c 0.086 -0.643 -0.467 -0.748 -0.676 -0.788 c -0.034 -0.006 -0.078 -0.015 -0.113 -0.024 c 0.004 -0.089 0.076 -0.162 0.324 -0.361 c 0.056 -0.045 0.115 -0.093 0.179 -0.146 l 0.032 -0.027 c 0.256 -0.215 0.854 -0.717 0.591 -1.629 c -0.158 -0.532 -0.479 -0.644 -0.722 -0.644 c -0.186 0 -0.364 0.065 -0.521 0.123 c -0.104 0.038 -0.221 0.079 -0.301 0.07 c -0.094 -0.116 0.137 -0.356 0.425 -0.635 c 0.057 -0.055 0.112 -0.109 0.161 -0.159 c 0.383 -0.374 0.58 -0.829 0.561 -1.281 c -0.021 -0.452 -0.256 -0.873 -0.678 -1.216 c -0.174 -0.141 -0.352 -0.212 -0.525 -0.212 c -0.459 0 -0.709 0.457 -0.908 0.824 c -0.061 0.111 -0.146 0.269 -0.207 0.339 c -0.166 -0.083 -0.236 -0.241 -0.194 -0.757 C 58.811 27.819 58.67 27.362 58.373 27.039 Z M 58.789 29.63 c 0.062 0.028 0.127 0.042 0.193 0.042 c 0.332 0 0.513 -0.333 0.688 -0.654 c 0.107 -0.197 0.287 -0.527 0.408 -0.527 c 0.018 0 0.072 0.008 0.166 0.085 c 0.293 0.238 0.455 0.515 0.467 0.8 c 0.014 0.288 -0.125 0.588 -0.393 0.851 c -0.049 0.05 -0.103 0.101 -0.156 0.152 c -0.357 0.347 -0.898 0.871 -0.479 1.394 c 0.112 0.151 0.273 0.23 0.467 0.23 c 0.164 0 0.324 -0.058 0.479 -0.114 c 0.118 -0.043 0.241 -0.088 0.327 -0.088 c 0.034 0 0.105 0 0.174 0.234 c 0.148 0.512 -0.121 0.791 -0.41 1.034 l -0.033 0.029 c -0.059 0.049 -0.115 0.094 -0.168 0.137 c -0.303 0.243 -0.613 0.493 -0.521 0.972 c 0.061 0.322 0.373 0.381 0.561 0.417 c 0.066 0.013 0.191 0.037 0.217 0.062 c 0 0 0.01 0.024 0.001 0.095 c -0.02 0.154 -0.173 0.436 -0.938 0.68 c -0.04 -0.317 -0.106 -0.734 -0.21 -1.29 c -0.412 -2.357 -2.068 -5.935 -2.299 -5.935 c -0.025 0 -0.05 0.01 -0.067 0.028 c -0.054 0.053 -0.054 0.053 0.178 0.639 c 0.405 1.03 1.354 3.442 1.688 5.367 c 0.102 0.54 0.18 0.947 0.244 1.259 c -0.814 -0.028 -1.066 -0.23 -1.143 -0.353 c -0.006 -0.012 -0.012 -0.021 -0.014 -0.029 c 0.033 -0.032 0.113 -0.078 0.164 -0.107 c 0.17 -0.098 0.452 -0.261 0.392 -0.583 c -0.095 -0.498 -0.515 -0.579 -0.921 -0.657 l -0.229 -0.044 c -0.367 -0.068 -0.703 -0.16 -0.787 -0.519 c -0.038 -0.162 -0.049 -0.206 0.389 -0.318 c 0.277 -0.071 0.694 -0.178 0.73 -0.606 c 0.008 -0.168 -0.045 -0.32 -0.153 -0.438 c -0.255 -0.279 -0.747 -0.297 -1.181 -0.313 l -0.104 -0.004 c -0.403 -0.024 -0.693 -0.132 -0.837 -0.313 c -0.11 -0.138 -0.146 -0.335 -0.104 -0.588 c 0.023 -0.142 0.059 -0.208 0.285 -0.208 c 0.138 0 0.301 0.029 0.458 0.057 c 0.165 0.029 0.32 0.057 0.464 0.057 c 0.32 0 0.463 -0.151 0.531 -0.291 c 0.126 -0.29 0.217 -0.843 -0.59 -1.299 c -0.326 -0.186 -0.51 -0.449 -0.514 -0.741 c -0.006 -0.327 0.213 -0.657 0.584 -0.884 c 0.416 -0.253 0.883 -0.217 1.157 0.08 c 0.188 0.204 0.276 0.508 0.247 0.856 C 58.17 28.66 58.113 29.364 58.789 29.63 Z" 
/>		 <path fill="#ffffff" d="M 47.678 17.995 c -0.314 0.557 -0.347 1.139 -0.089 1.598 c 0.243 0.432 0.718 0.691 1.31 0.709 c 0.499 0.002 0.568 0.155 0.584 0.271 c -0.069 0.046 -0.244 0.107 -0.365 0.148 c -0.354 0.122 -0.753 0.26 -0.918 0.606 c -0.088 0.185 -0.09 0.395 -0.01 0.612 c 0.279 0.868 1.047 1.137 2.053 0.657 l 0.1 -0.051 c 0.234 -0.119 0.527 -0.268 0.697 -0.268 c 0.031 0 0.041 0.002 0.047 0.012 c -0.025 0.056 -0.143 0.167 -0.214 0.236 c -0.19 0.182 -0.428 0.407 -0.436 0.721 c -0.004 0.188 0.076 0.37 0.231 0.532 c 0.221 0.249 0.506 0.375 0.846 0.375 c 0.273 0 0.523 -0.084 0.689 -0.14 l 0.237 -0.079 c 0.194 -0.066 0.36 -0.128 0.442 -0.103 c -0.016 0.03 -0.037 0.065 -0.053 0.093 c -0.095 0.158 -0.224 0.375 -0.16 0.619 c 0.037 0.148 0.138 0.27 0.3 0.365 c 0.146 0.082 0.317 0.124 0.509 0.124 c 0.449 0 0.926 -0.217 1.279 -0.407 c 0.269 0.292 0.314 0.296 0.354 0.296 c 0.026 0.004 0.055 -0.008 0.077 -0.029 l 0.027 -0.004 l 0.026 -0.054 c 0.02 -0.041 0.05 -0.109 -0.158 -0.445 c 0.676 -0.676 0.919 -1.276 0.72 -1.78 c -0.15 -0.385 -0.433 -0.443 -0.587 -0.443 c -0.143 0 -0.272 0.043 -0.387 0.082 c -0.031 0.011 -0.071 0.024 -0.104 0.034 c -0.043 -0.086 -0.016 -0.184 0.102 -0.483 c 0.025 -0.062 0.051 -0.127 0.076 -0.197 l 0.016 -0.041 c 0.118 -0.312 0.396 -1.044 -0.274 -1.72 c -0.207 -0.194 -0.407 -0.289 -0.613 -0.289 c -0.341 0 -0.558 0.252 -0.732 0.455 c -0.065 0.076 -0.174 0.202 -0.224 0.209 c -0.139 -0.058 -0.053 -0.382 0.064 -0.769 c 0.023 -0.077 0.047 -0.151 0.064 -0.218 c 0.15 -0.5 0.11 -0.967 -0.117 -1.351 c -0.234 -0.393 -0.646 -0.66 -1.198 -0.775 c -0.357 -0.062 -0.594 0.068 -0.704 0.179 c -0.258 0.259 -0.254 0.682 -0.251 1.054 c 0.001 0.126 0.003 0.307 -0.017 0.398 c -0.179 -0.001 -0.332 -0.095 -0.542 -0.55 c -0.271 -0.632 -0.789 -1.01 -1.386 -1.01 C 48.461 17.171 47.971 17.479 47.678 17.995 Z M 48.174 18.276 c 0.189 -0.334 0.496 -0.535 0.816 -0.535 c 0.361 0 0.683 0.249 0.865 0.671 c 0.201 0.44 0.486 0.89 1.065 0.89 c 0.036 0 0.074 -0.002 0.11 -0.005 c 0.48 -0.044 0.477 -0.577 0.473 -0.967 c -0.002 -0.222 -0.004 -0.557 0.086 -0.648 c 0.008 -0.007 0.027 -0.028 0.104 -0.028 c 0.031 0 0.063 0.003 0.09 0.008 c 0.383 0.079 0.665 0.254 0.814 0.506 c 0.145 0.243 0.166 0.552 0.062 0.9 c -0.02 0.068 -0.04 0.139 -0.062 0.21 c -0.146 0.478 -0.365 1.2 0.253 1.458 c 0.077 0.034 0.155 0.051 0.234 0.051 c 0.292 0 0.489 -0.229 0.647 -0.412 c 0.099 -0.114 0.221 -0.257 0.301 -0.257 c 0.023 0 0.094 0.013 0.215 0.127 c 0.375 0.378 0.275 0.756 0.14 1.111 l -0.017 0.044 c -0.024 0.066 -0.049 0.128 -0.071 0.187 c -0.14 0.355 -0.284 0.723 0.021 1.107 c 0.062 0.075 0.175 0.165 0.358 0.165 c 0.117 0 0.228 -0.037 0.334 -0.072 c 0.072 -0.024 0.155 -0.052 0.215 -0.052 c 0 0 0.021 0.016 0.047 0.082 c 0.06 0.15 0.064 0.487 -0.518 1.094 c -0.189 -0.259 -0.449 -0.593 -0.803 -1.028 c -1.348 -1.644 -3.675 -3.288 -4.443 -3.831 c -0.334 -0.266 -0.354 -0.266 -0.391 -0.266 H 49.08 l -0.059 0.06 l 0.003 0.044 c 0.005 0.054 0.005 0.054 0.351 0.297 l 0.023 0.017 c 0.889 0.71 2.902 2.459 4.168 4.007 c 0.34 0.418 0.602 0.733 0.805 0.971 c -0.242 0.124 -0.6 0.278 -0.893 0.278 c -0.094 0 -0.17 -0.017 -0.225 -0.047 c -0.014 -0.007 -0.021 -0.014 -0.028 -0.019 c 0.013 -0.044 0.062 -0.127 0.094 -0.179 c 0.099 -0.167 0.267 -0.447 0.062 -0.696 c -0.138 -0.174 -0.318 -0.263 -0.536 -0.263 c -0.184 0 -0.371 0.063 -0.588 0.137 l -0.236 0.079 c -0.138 0.046 -0.328 0.11 -0.508 0.11 c -0.176 0 -0.309 -0.059 -0.426 -0.192 c -0.052 -0.053 -0.082 -0.103 -0.081 -0.132 c 0.001 -0.077 0.155 -0.224 0.259 -0.321 c 0.205 -0.197 0.518 -0.494 0.342 -0.882 c -0.107 -0.225 -0.311 -0.348 -0.568 -0.348 c -0.306 0 -0.65 0.175 -0.955 0.33 l -0.092 0.046 c -0.25 0.119 -0.48 0.182 -0.666 0.182 s -0.45 -0.052 -0.599 -0.512 c -0.043 -0.119 -0.021 -0.166 -0.013 -0.181 c 0.062 -0.131 0.365 -0.236 0.588 -0.312 c 0.346 -0.119 0.775 -0.267 0.753 -0.678 c -0.026 -0.386 -0.248 -0.846 -1.147 -0.85 c -0.386 -0.012 -0.678 -0.161 -0.823 -0.419 C 47.928 19.032 47.96 18.654 48.174 18.276 Z" 
/>		 <path fill="#ffffff" d="M 21.235 45.6 l 1.28 -3.361 h -0.724 l -0.672 1.745 c -0.097 0.259 -0.194 0.562 -0.278 0.866 h -0.007 c -0.083 -0.311 -0.174 -0.607 -0.278 -0.879 l -0.653 -1.732 h -0.77 l 1.287 3.361 H 21.235 L 21.235 45.6 Z" 
/>		 <polygon fill="#ffffff" points="25.385,45.043 24.104,45.043 24.104,44.139 25.326,44.139 25.326,43.607 24.104,43.607 24.104,42.787 25.385,42.787 25.385,42.238 23.406,42.238 23.406,45.6 25.385,45.6" 
/>		 <polygon fill="#ffffff" points="27.886,45.6 27.886,42.832 28.818,42.832 28.818,42.238 26.257,42.238 26.257,42.832 27.188,42.832 27.188,45.6" 
/>		 <polygon fill="#ffffff" points="31.797,42.787 31.797,42.238 29.819,42.238 29.819,45.6 31.797,45.6 31.797,45.043 30.518,45.043 30.518,44.139 31.74,44.139 31.74,43.607 30.518,43.607 30.518,42.787" 
/>		 <path fill="#ffffff" d="M 35.178 44.028 l -1.132 -1.79 h -0.931 V 45.6 h 0.679 l -0.006 -1.759 c 0 -0.31 -0.006 -0.517 -0.02 -0.704 h 0.006 c 0.09 0.199 0.213 0.439 0.343 0.64 l 1.157 1.823 h 0.93 v -3.361 h -0.678 l 0.006 1.48 c 0 0.434 0.007 0.756 0.019 0.969 h -0.005 C 35.437 44.455 35.308 44.234 35.178 44.028 Z" 
/>		 <path fill="#ffffff" d="M 38.281 45.082 c -0.284 0 -0.549 -0.053 -0.743 -0.129 l -0.026 0.627 c 0.188 0.045 0.459 0.084 0.691 0.084 c 0.861 0 1.455 -0.446 1.455 -1.132 c 0 -1.054 -1.5 -0.802 -1.5 -1.376 c 0 -0.253 0.188 -0.421 0.613 -0.421 c 0.195 0 0.46 0.038 0.642 0.097 l 0.025 -0.594 c -0.188 -0.033 -0.446 -0.059 -0.64 -0.059 c -0.887 0 -1.378 0.42 -1.378 1.053 c 0 1.093 1.48 0.783 1.48 1.378 C 38.901 44.939 38.598 45.082 38.281 45.082 Z" 
/>		 <polygon fill="#ffffff" points="40.88,42.238 40.88,45.6 41.578,45.6 41.578,44.021 42.825,45.6 43.75,45.6 42.303,43.854 43.679,42.238 42.819,42.238 41.578,43.736 41.578,42.238" 
/>		 <path fill="#ffffff" d="M 45.246 44.945 h 1.402 l 0.239 0.654 h 0.776 l -1.268 -3.362 h -0.82 L 44.303 45.6 H 45 L 45.246 44.945 Z M 45.775 43.491 c 0.065 -0.175 0.129 -0.362 0.17 -0.523 h 0.005 c 0.046 0.155 0.11 0.354 0.175 0.53 l 0.35 0.943 h -1.061 L 45.775 43.491 Z" 
/>		 <path fill="#ffffff" d="M 49.771 42.218 c -0.396 0 -0.814 0.013 -1.1 0.02 V 45.6 h 0.699 v -1.107 c 0.084 0.008 0.213 0.014 0.297 0.014 c 0.854 0 1.441 -0.465 1.441 -1.202 C 51.109 42.625 50.625 42.218 49.771 42.218 Z M 49.668 43.95 c -0.091 0 -0.221 -0.005 -0.297 -0.026 v -1.137 c 0.09 -0.006 0.213 -0.006 0.342 -0.006 c 0.434 0 0.653 0.238 0.653 0.568 C 50.366 43.744 50.102 43.95 49.668 43.95 Z" 
/>		 <path fill="#ffffff" d="M 21.245 51.266 c 0.963 0 1.764 -0.66 1.764 -1.771 c 0 -1.138 -0.679 -1.706 -1.655 -1.706 c -0.931 0 -1.746 0.665 -1.746 1.771 C 19.609 50.566 20.152 51.266 21.245 51.266 Z M 21.31 48.396 c 0.576 0 0.95 0.395 0.95 1.144 c 0 0.75 -0.44 1.112 -0.976 1.112 c -0.66 0 -0.931 -0.505 -0.931 -1.144 C 20.353 48.783 20.798 48.396 21.31 48.396 Z" 
/>		 <path fill="#ffffff" d="M 25.472 51.252 c 0.33 0 0.627 -0.052 0.906 -0.148 l -0.059 -0.621 c -0.2 0.098 -0.452 0.156 -0.704 0.156 c -0.667 0 -1.054 -0.382 -1.054 -1.105 c 0 -0.666 0.355 -1.145 1.015 -1.145 c 0.233 0 0.472 0.039 0.711 0.117 l 0.064 -0.614 c -0.226 -0.064 -0.504 -0.091 -0.724 -0.091 c -1.261 0 -1.81 0.847 -1.81 1.797 C 23.818 50.619 24.374 51.252 25.472 51.252 Z" 
/>		 <polygon fill="#ffffff" points="30.457,51.207 30.457,47.846 29.759,47.846 29.759,49.184 28.175,49.184 28.175,47.846 27.477,47.846 27.477,51.207 28.175,51.207 28.175,49.785 29.759,49.785 29.759,51.207" 
/>		 <polygon fill="#ffffff" points="34.144,49.629 35.392,51.207 36.316,51.207 34.868,49.462 36.244,47.846 35.385,47.846 34.144,49.346 34.144,47.846 33.446,47.846 33.446,51.207 34.144,51.207" 
/>		 <path fill="#ffffff" d="M 38.418 51.266 c 0.963 0 1.764 -0.66 1.764 -1.771 c 0 -1.138 -0.679 -1.706 -1.654 -1.706 c -0.932 0 -1.746 0.665 -1.746 1.771 C 36.781 50.566 37.324 51.266 38.418 51.266 Z M 38.482 48.396 c 0.574 0 0.949 0.395 0.949 1.144 c 0 0.75 -0.439 1.112 -0.977 1.112 c -0.659 0 -0.93 -0.505 -0.93 -1.144 C 37.525 48.783 37.971 48.396 38.482 48.396 Z" 
/>		 <path fill="#ffffff" d="M 42.215 49.385 l 1.157 1.822 h 0.931 v -3.361 h -0.679 l 0.007 1.48 c 0 0.433 0.006 0.756 0.019 0.969 h -0.006 c -0.11 -0.232 -0.239 -0.452 -0.368 -0.658 l -1.132 -1.791 h -0.932 v 3.361 h 0.68 l -0.006 -1.758 c 0 -0.311 -0.007 -0.518 -0.021 -0.705 h 0.008 C 41.963 48.943 42.086 49.184 42.215 49.385 Z" 
/>		 <path fill="#ffffff" d="M 46.346 50.689 c -0.283 0 -0.549 -0.051 -0.742 -0.129 l -0.025 0.627 c 0.187 0.046 0.459 0.086 0.691 0.086 c 0.859 0 1.454 -0.447 1.454 -1.133 c 0 -1.053 -1.499 -0.802 -1.499 -1.377 c 0 -0.252 0.187 -0.42 0.613 -0.42 c 0.194 0 0.459 0.039 0.641 0.098 l 0.025 -0.596 c -0.188 -0.032 -0.445 -0.058 -0.641 -0.058 c -0.885 0 -1.377 0.42 -1.377 1.054 c 0 1.092 1.48 0.781 1.48 1.377 C 46.967 50.548 46.664 50.689 46.346 50.689 Z" 
/>		 <polygon fill="#ffffff" points="50.029,51.207 50.029,48.441 50.96,48.441 50.96,47.846 48.4,47.846 48.4,48.441 49.331,48.441 49.331,51.207" 
/>		 <path fill="#ffffff" d="M 23.973 38.321 l -0.083 -0.011 c -1.765 -0.219 -1.775 -0.568 -1.817 -2.035 v -2.548 l 2.949 3.208 c 1.124 1.232 1.744 1.911 3.38 1.911 c 0.305 0 0.641 -0.022 1.03 -0.07 l 0.083 -0.009 l 0.006 -0.395 l -0.093 -0.004 c -0.983 -0.043 -1.52 -0.601 -2.588 -1.709 c -0.147 -0.154 -0.304 -0.316 -0.47 -0.486 l -2.874 -3.198 l 1.157 -1.183 l 0.247 -0.259 c 0.972 -1.021 2.074 -2.179 3.543 -2.334 l 0.085 -0.009 v -0.394 h -3.892 v 0.394 l 0.085 0.009 c 0.385 0.041 0.592 0.13 0.651 0.283 c 0.109 0.284 -0.232 0.867 -1.044 1.779 l -2.257 2.409 v -2.423 c 0.043 -1.472 0.053 -1.823 1.434 -2.039 l 0.081 -0.013 v -0.39 h -4.734 v 0.393 l 0.082 0.011 c 1.637 0.218 1.646 0.568 1.689 2.035 v 5.027 c -0.043 1.472 -0.053 1.82 -1.689 2.039 l -0.082 0.012 v 0.393 h 5.12 L 23.973 38.321 L 23.973 38.321 Z" 
/>		 <path fill="#ffffff" d="M 36.893 38.32 l -0.084 -0.01 c -1.847 -0.22 -1.917 -0.639 -1.917 -2.378 v -6.508 h 0.763 c 1.688 0 2.377 0.523 2.837 2.155 l 0.025 0.085 l 0.367 -0.08 l -0.182 -2.794 H 29.63 l -0.177 2.794 l 0.367 0.08 l 0.025 -0.085 c 0.46 -1.631 1.149 -2.155 2.838 -2.155 h 0.763 v 6.508 c 0 1.739 -0.07 2.157 -1.917 2.378 l -0.083 0.01 v 0.395 h 5.448 V 38.32 L 36.893 38.32 Z" 
/>		 <path fill="#ffffff" d="M 51.458 29.209 l 0.082 -0.011 v -0.393 h -5.12 v 0.392 l 0.08 0.012 c 1.82 0.264 1.82 0.5 1.82 2.035 v 1.977 h -5.166 v -1.977 c 0 -1.535 0 -1.771 1.818 -2.035 l 0.082 -0.012 v -0.392 h -5.119 v 0.393 l 0.082 0.011 c 1.637 0.218 1.646 0.567 1.689 2.035 v 5.028 c -0.044 1.472 -0.053 1.819 -1.689 2.038 l -0.082 0.012 v 0.393 h 5.119 v -0.392 l -0.082 -0.013 c -1.818 -0.264 -1.818 -0.5 -1.818 -2.035 v -2.263 h 5.166 v 2.263 c 0 1.535 0 1.771 -1.82 2.035 l -0.08 0.013 v 0.392 h 5.12 v -0.393 l -0.082 -0.012 c -1.637 -0.219 -1.646 -0.567 -1.688 -2.035 v -5.028 C 49.812 29.777 49.821 29.427 51.458 29.209 Z" 
/>		 <path fill="#ffffff" d="M 23.15 15.833 c -0.035 0.071 -0.267 0.561 0.075 1.085 c 0.373 0.571 1.007 0.473 1.028 0.47 c 0.438 0.553 1.168 1.213 1.765 1.042 c 0 0 3.762 -1.744 8.979 -1.751 h 0.004 c 5.22 0.007 8.982 1.751 8.982 1.751 c 0.597 0.17 1.326 -0.489 1.764 -1.042 c 0.021 0.003 0.655 0.101 1.028 -0.47 c 0.343 -0.524 0.109 -1.014 0.075 -1.085 c 0.312 -0.505 0.792 -0.954 0.792 -0.954 c 0.222 -0.205 0.36 -0.496 0.36 -0.82 c 0 -0.617 -0.502 -1.121 -1.119 -1.121 c -0.051 0 -0.099 0.004 -0.146 0.011 c -0.008 -0.031 -0.019 -0.063 -0.027 -0.094 c 0.303 -0.156 0.512 -0.469 0.512 -0.831 c 0 -0.518 -0.42 -0.938 -0.938 -0.938 c -0.174 0 -0.333 0.05 -0.473 0.132 c -0.027 -0.031 -0.053 -0.062 -0.081 -0.094 c 0.146 -0.14 0.236 -0.336 0.236 -0.553 c 0 -0.427 -0.347 -0.773 -0.774 -0.773 c -0.262 0 -0.492 0.131 -0.631 0.332 c -0.045 -0.029 -0.09 -0.059 -0.135 -0.087 c 0.086 -0.117 0.139 -0.26 0.139 -0.416 c 0 -0.388 -0.316 -0.704 -0.705 -0.704 c -0.305 0 -0.561 0.196 -0.658 0.467 c -0.074 -0.032 -0.148 -0.063 -0.223 -0.094 c 0.057 -0.095 0.091 -0.205 0.091 -0.323 c 0 -0.352 -0.286 -0.638 -0.639 -0.638 c -0.317 0 -0.58 0.234 -0.628 0.54 c -0.047 -0.015 -0.093 -0.03 -0.143 -0.045 c -0.105 -0.374 -0.445 -0.649 -0.854 -0.649 c -0.09 0 -0.178 0.016 -0.258 0.042 c -0.033 -0.027 -0.065 -0.053 -0.099 -0.078 c 0.001 -0.014 0.003 -0.027 0.003 -0.042 c 0 -0.414 -0.338 -0.751 -0.752 -0.751 c -0.164 0 -0.313 0.053 -0.436 0.143 c -0.029 -0.011 -0.059 -0.023 -0.088 -0.034 c 0 -0.006 0.002 -0.012 0.002 -0.018 c 0 -0.375 -0.305 -0.679 -0.68 -0.679 c -0.254 0 -0.474 0.143 -0.59 0.351 c -0.052 -0.01 -0.105 -0.02 -0.159 -0.029 c 0.001 -0.008 0.003 -0.017 0.003 -0.024 c 0 -0.341 -0.278 -0.619 -0.619 -0.619 c -0.296 0 -0.545 0.21 -0.604 0.489 c -0.06 -0.004 -0.121 -0.009 -0.182 -0.013 c 0.074 -0.176 0.116 -0.369 0.116 -0.571 c 0 -0.562 -0.317 -1.05 -0.784 -1.296 c 0 0 -0.171 -0.089 -0.42 -0.138 c 0 -0.514 0 -1.118 0 -1.118 s 0.566 0 0.628 0 c 0.021 -0.025 0.063 -0.11 0.063 -0.263 c 0 -0.149 -0.042 -0.235 -0.063 -0.26 c -0.062 0 -0.628 0 -0.628 0 V 2.646 c -0.026 -0.021 -0.112 -0.063 -0.263 -0.063 h 0 c -0.151 0 -0.236 0.041 -0.263 0.063 v 0.626 c 0 0 -0.563 0 -0.625 0 c -0.022 0.025 -0.064 0.111 -0.064 0.26 c 0 0.152 0.042 0.238 0.064 0.263 c 0.062 0 0.625 0 0.625 0 s 0 0.604 0 1.118 C 34.491 4.961 34.32 5.05 34.32 5.05 c -0.466 0.246 -0.784 0.734 -0.784 1.296 c 0 0.202 0.042 0.395 0.117 0.571 c -0.061 0.004 -0.123 0.008 -0.182 0.013 c -0.059 -0.279 -0.307 -0.489 -0.603 -0.489 c -0.342 0 -0.62 0.278 -0.62 0.619 c 0 0.008 0.002 0.016 0.003 0.024 c -0.055 0.01 -0.108 0.019 -0.16 0.029 c -0.115 -0.208 -0.335 -0.351 -0.588 -0.351 c -0.375 0 -0.681 0.304 -0.681 0.679 c 0 0.006 0.002 0.012 0.002 0.018 c -0.029 0.011 -0.058 0.023 -0.088 0.034 c -0.123 -0.089 -0.272 -0.143 -0.436 -0.143 c -0.415 0 -0.752 0.337 -0.752 0.751 c 0 0.014 0.001 0.027 0.002 0.042 c -0.033 0.025 -0.066 0.051 -0.098 0.078 c -0.082 -0.026 -0.169 -0.042 -0.259 -0.042 c -0.407 0 -0.747 0.276 -0.854 0.649 c -0.049 0.015 -0.094 0.03 -0.143 0.045 c -0.047 -0.306 -0.31 -0.54 -0.628 -0.54 c -0.352 0 -0.638 0.287 -0.638 0.638 c 0 0.119 0.034 0.229 0.091 0.323 c -0.075 0.031 -0.15 0.062 -0.223 0.094 c -0.097 -0.271 -0.354 -0.467 -0.659 -0.467 c -0.389 0 -0.705 0.315 -0.705 0.704 c 0 0.156 0.052 0.299 0.139 0.416 c -0.045 0.029 -0.09 0.058 -0.134 0.087 c -0.139 -0.2 -0.371 -0.332 -0.632 -0.332 c -0.427 0 -0.774 0.347 -0.774 0.773 c 0 0.217 0.091 0.414 0.236 0.554 c -0.028 0.031 -0.054 0.062 -0.081 0.093 c -0.139 -0.082 -0.3 -0.132 -0.474 -0.132 c -0.516 0 -0.937 0.42 -0.937 0.938 c 0 0.363 0.209 0.675 0.512 0.831 c -0.009 0.031 -0.02 0.063 -0.028 0.094 c -0.047 -0.006 -0.096 -0.01 -0.146 -0.01 c -0.617 0 -1.12 0.503 -1.12 1.12 c 0 0.324 0.138 0.615 0.36 0.82 C 22.359 14.878 22.838 15.327 23.15 15.833 Z M 24.119 17 c -0.38 0 -0.688 -0.309 -0.688 -0.689 c 0 -0.144 0.044 -0.277 0.119 -0.387 c 0.123 -0.184 0.332 -0.305 0.569 -0.305 s 0.446 0.121 0.569 0.304 c 0.076 0.11 0.12 0.244 0.12 0.388 C 24.808 16.691 24.5 17 24.119 17 Z M 34.998 14.746 c -0.377 0 -0.683 -0.306 -0.683 -0.684 c 0 -0.377 0.306 -0.683 0.683 -0.683 c 0.378 0 0.686 0.306 0.686 0.683 C 35.684 14.44 35.376 14.746 34.998 14.746 Z M 35 9.416 c 0.376 0 0.682 0.304 0.682 0.679 c 0 0.375 -0.306 0.679 -0.682 0.679 c -0.375 0 -0.679 -0.305 -0.679 -0.679 C 34.32 9.719 34.624 9.416 35 9.416 Z M 34.469 8.662 c 0 -0.292 0.237 -0.53 0.53 -0.53 c 0.293 0 0.532 0.237 0.532 0.53 s -0.238 0.53 -0.532 0.53 C 34.707 9.192 34.469 8.955 34.469 8.662 Z M 34.997 11.039 c 0.466 0 0.844 0.376 0.844 0.841 c 0 0.212 -0.08 0.407 -0.21 0.555 c -0.176 -0.133 -0.396 -0.212 -0.633 -0.212 c -0.238 0 -0.457 0.08 -0.632 0.214 c -0.131 -0.148 -0.21 -0.343 -0.21 -0.556 C 34.156 11.415 34.533 11.039 34.997 11.039 Z M 45.88 17 c -0.38 0 -0.688 -0.308 -0.688 -0.688 c 0 -0.186 0.074 -0.354 0.193 -0.478 c 0.125 -0.132 0.301 -0.214 0.496 -0.214 c 0.297 0 0.549 0.188 0.643 0.45 c 0.029 0.075 0.045 0.157 0.045 0.242 C 46.568 16.691 46.26 17 45.88 17 Z M 46.883 13.318 c 0.408 0 0.74 0.332 0.74 0.74 c 0 0.268 -0.26 0.593 -0.489 0.735 c -0.194 -0.229 -0.482 -0.376 -0.807 -0.376 c -0.028 0 -0.056 0.002 -0.085 0.005 c -0.062 -0.108 -0.1 -0.231 -0.1 -0.364 C 46.143 13.65 46.475 13.318 46.883 13.318 Z M 46.285 11.465 c 0.307 0 0.557 0.25 0.557 0.558 c 0 0.308 -0.25 0.558 -0.557 0.558 c -0.309 0 -0.561 -0.25 -0.561 -0.558 C 45.725 11.716 45.977 11.465 46.285 11.465 Z M 45.193 10.177 c 0.218 0 0.395 0.176 0.395 0.394 c 0 0.216 -0.177 0.392 -0.395 0.392 c -0.217 0 -0.393 -0.176 -0.393 -0.392 C 44.801 10.353 44.977 10.177 45.193 10.177 Z M 43.861 9.302 c 0.179 0 0.324 0.145 0.324 0.323 c 0 0.179 -0.146 0.324 -0.324 0.324 c -0.18 0 -0.323 -0.146 -0.323 -0.324 C 43.538 9.447 43.683 9.302 43.861 9.302 Z M 42.433 8.713 c 0.143 0 0.258 0.116 0.258 0.258 c 0 0.143 -0.115 0.258 -0.258 0.258 c -0.142 0 -0.258 -0.116 -0.258 -0.258 C 42.175 8.829 42.291 8.713 42.433 8.713 Z M 41.592 9.488 c 2.157 0.688 3.277 1.731 3.789 2.773 c 0.415 0.955 0.344 1.178 0.379 1.785 c 0.012 0.212 0.064 0.354 0.106 0.479 c -0.493 0.269 -0.552 0.649 -0.56 0.674 c -0.02 -0.013 -0.04 -0.027 -0.061 -0.042 c -0.182 -0.147 -0.412 -0.238 -0.664 -0.236 c -0.785 0.007 -1.272 0.775 -0.954 1.517 c 0.077 0.178 0.515 0.824 1.372 0.513 c 0.051 0.069 0.108 0.132 0.173 0.187 c -0.247 0.483 -0.825 0.712 -1.342 0.51 c -0.515 -0.201 -0.876 -0.624 -1.019 -1.117 c -0.383 0.341 -0.917 0.505 -1.457 0.398 c -0.58 -0.113 -0.96 -0.678 -0.846 -1.257 c 0.01 -0.054 0.062 -0.265 0.086 -0.343 c 0.076 0.404 0.389 0.743 0.816 0.826 c 0.563 0.111 1.112 -0.259 1.223 -0.82 c 0.11 -0.563 -0.259 -1.111 -0.822 -1.222 c -0.061 -0.013 -0.127 0 -0.191 0 c 0.018 -0.049 0.038 -0.104 0.038 -0.104 c 0.024 -0.124 0.024 -0.246 0.005 -0.364 c 0.513 -0.138 0.891 -0.606 0.891 -1.161 c 0 -0.447 -0.246 -0.837 -0.608 -1.045 c 0.302 -0.174 0.507 -0.496 0.507 -0.868 c 0 -0.523 -0.402 -0.949 -0.914 -0.996 C 41.559 9.547 41.576 9.517 41.592 9.488 Z M 40.835 12.789 c -0.086 -0.018 -0.171 -0.022 -0.256 -0.018 c -0.033 -0.09 -0.054 -0.186 -0.054 -0.287 c 0 -0.455 0.37 -0.824 0.825 -0.824 s 0.825 0.37 0.825 0.824 c 0 0.392 -0.275 0.72 -0.643 0.803 C 41.387 13.037 41.141 12.848 40.835 12.789 Z M 42.073 10.57 c 0 0.346 -0.28 0.627 -0.626 0.627 s -0.627 -0.281 -0.627 -0.627 c 0 -0.345 0.281 -0.626 0.627 -0.626 S 42.073 10.226 42.073 10.57 Z M 40.809 8.559 c 0.281 0 0.511 0.229 0.511 0.51 s -0.229 0.51 -0.511 0.51 s -0.508 -0.229 -0.508 -0.51 S 40.528 8.559 40.809 8.559 Z M 40.475 13.91 c 0.377 0 0.684 0.306 0.684 0.683 c 0 0.377 -0.307 0.684 -0.684 0.684 c -0.378 0 -0.684 -0.307 -0.684 -0.684 C 39.791 14.215 40.097 13.91 40.475 13.91 Z M 39.703 7.73 c 0.205 0 0.371 0.166 0.371 0.371 c 0 0.204 -0.166 0.37 -0.371 0.37 s -0.371 -0.166 -0.371 -0.37 C 39.332 7.896 39.498 7.73 39.703 7.73 Z M 38.5 7.142 c 0.166 0 0.301 0.134 0.301 0.299 S 38.666 7.74 38.5 7.74 c -0.164 0 -0.297 -0.134 -0.297 -0.299 S 38.336 7.142 38.5 7.142 Z M 37.135 6.82 c 0.133 0 0.24 0.107 0.24 0.238 c 0 0.132 -0.107 0.24 -0.24 0.24 c -0.13 0 -0.236 -0.107 -0.236 -0.24 C 36.898 6.927 37.005 6.82 37.135 6.82 Z M 39.842 12.725 l 0.152 0.265 c -0.189 0.149 -0.331 0.363 -0.381 0.62 c 0 0 -0.002 0.057 -0.004 0.108 c -0.058 -0.023 -0.112 -0.057 -0.174 -0.069 c -0.562 -0.11 -1.111 0.258 -1.221 0.821 c -0.109 0.562 0.258 1.11 0.822 1.221 c 0.428 0.084 0.844 -0.111 1.068 -0.457 c -0.008 0.082 -0.039 0.295 -0.05 0.35 c -0.114 0.58 -0.678 0.959 -1.259 0.845 c -0.541 -0.105 -0.937 -0.453 -1.164 -0.914 c -0.311 0.408 -0.768 0.678 -1.32 0.678 c -0.59 0 -1.073 -0.481 -1.073 -1.072 c 0 -0.056 0.01 -0.272 0.017 -0.353 c 0.155 0.382 0.529 0.654 0.964 0.654 c 0.574 0 1.042 -0.467 1.042 -1.04 c 0 -0.574 -0.468 -1.041 -1.042 -1.041 c -0.062 0 -0.125 0.025 -0.188 0.037 c 0.008 -0.051 0.017 -0.11 0.017 -0.11 c 0 -0.103 -0.016 -0.202 -0.043 -0.296 l 0.372 -0.24 c 0 0 -0.066 -3.52 -0.695 -5.092 c 0.021 -0.011 0.042 -0.024 0.062 -0.036 C 40.889 7.895 40.447 11.469 39.842 12.725 Z M 36.076 6.252 c 0 0.022 0.003 0.044 0.003 0.067 c 0 0.212 -0.063 0.409 -0.171 0.574 c -0.094 -0.003 -0.217 -0.005 -0.349 -0.006 c 0.01 -0.043 0.017 -0.089 0.017 -0.135 c 0 -0.216 -0.121 -0.401 -0.297 -0.5 H 36.076 Z M 35.26 5.286 c 0.306 0.073 0.569 0.293 0.707 0.566 H 35.26 V 5.286 Z M 34.999 6.513 c 0.131 0 0.238 0.107 0.238 0.238 c 0 0.131 -0.107 0.238 -0.238 0.238 c -0.131 0 -0.238 -0.106 -0.238 -0.238 C 34.761 6.62 34.868 6.513 34.999 6.513 Z M 34.999 7.216 c 0.197 0 0.358 0.16 0.358 0.357 c 0 0.198 -0.161 0.357 -0.358 0.357 c -0.198 0 -0.357 -0.16 -0.357 -0.357 C 34.642 7.376 34.801 7.216 34.999 7.216 Z M 34.738 5.286 v 0.566 h -0.704 C 34.172 5.579 34.435 5.359 34.738 5.286 Z M 33.926 6.252 h 0.794 c -0.176 0.099 -0.295 0.284 -0.295 0.5 c 0 0.046 0.006 0.092 0.017 0.135 c -0.131 0.001 -0.254 0.003 -0.348 0.006 c -0.107 -0.166 -0.171 -0.362 -0.171 -0.574 C 33.922 6.296 33.924 6.274 33.926 6.252 Z M 32.866 6.82 c 0.13 0 0.237 0.107 0.237 0.238 c 0 0.132 -0.107 0.24 -0.237 0.24 c -0.132 0 -0.24 -0.107 -0.24 -0.24 C 32.626 6.927 32.734 6.82 32.866 6.82 Z M 31.5 7.142 c 0.164 0 0.297 0.134 0.297 0.299 S 31.665 7.74 31.5 7.74 c -0.166 0 -0.301 -0.134 -0.301 -0.299 C 31.2 7.275 31.335 7.142 31.5 7.142 Z M 30.299 7.73 c 0.204 0 0.37 0.166 0.37 0.371 c 0 0.204 -0.167 0.37 -0.37 0.37 c -0.205 0 -0.372 -0.166 -0.372 -0.37 C 29.927 7.896 30.094 7.73 30.299 7.73 Z M 34.256 7.604 c 0.02 0.012 0.041 0.024 0.061 0.036 c -0.628 1.572 -0.694 5.092 -0.694 5.092 l 0.372 0.24 c -0.027 0.094 -0.042 0.193 -0.042 0.296 c 0 0 0.008 0.059 0.017 0.11 c -0.062 -0.011 -0.126 -0.037 -0.188 -0.037 c -0.574 0 -1.041 0.467 -1.041 1.041 c 0 0.573 0.467 1.04 1.041 1.04 c 0.436 0 0.808 -0.271 0.962 -0.654 c 0.007 0.081 0.017 0.297 0.017 0.353 c 0 0.591 -0.481 1.072 -1.071 1.072 c -0.551 0 -1.008 -0.271 -1.319 -0.678 c -0.228 0.461 -0.624 0.809 -1.165 0.914 c -0.581 0.114 -1.145 -0.266 -1.259 -0.845 c -0.01 -0.055 -0.041 -0.269 -0.05 -0.35 c 0.225 0.346 0.641 0.541 1.069 0.457 c 0.564 -0.11 0.931 -0.658 0.821 -1.221 c -0.109 -0.563 -0.658 -0.932 -1.221 -0.821 c -0.062 0.012 -0.116 0.046 -0.174 0.069 c 0 -0.051 -0.003 -0.108 -0.003 -0.108 c -0.05 -0.256 -0.191 -0.471 -0.381 -0.62 l 0.153 -0.265 C 29.553 11.469 29.111 7.895 34.256 7.604 Z M 30.21 14.593 c 0 0.377 -0.306 0.683 -0.684 0.683 c -0.377 0 -0.684 -0.306 -0.684 -0.683 c 0 -0.377 0.306 -0.684 0.684 -0.684 C 29.905 13.91 30.21 14.215 30.21 14.593 Z M 28.469 13.287 c -0.367 -0.083 -0.643 -0.411 -0.643 -0.803 c 0 -0.455 0.37 -0.824 0.825 -0.824 c 0.455 0 0.825 0.37 0.825 0.824 c 0 0.101 -0.021 0.197 -0.054 0.287 c -0.084 -0.004 -0.169 0 -0.255 0.018 C 28.861 12.848 28.614 13.037 28.469 13.287 Z M 29.192 8.559 c 0.281 0 0.508 0.229 0.508 0.51 s -0.228 0.51 -0.508 0.51 c -0.282 0 -0.511 -0.229 -0.511 -0.51 S 28.91 8.559 29.192 8.559 Z M 28.554 9.944 c 0.345 0 0.626 0.281 0.626 0.626 c 0 0.346 -0.281 0.627 -0.626 0.627 c -0.346 0 -0.626 -0.281 -0.626 -0.627 C 27.928 10.226 28.208 9.944 28.554 9.944 Z M 27.569 8.713 c 0.142 0 0.257 0.116 0.257 0.258 c 0 0.143 -0.116 0.258 -0.257 0.258 c -0.143 0 -0.258 -0.116 -0.258 -0.258 C 27.311 8.829 27.426 8.713 27.569 8.713 Z M 26.141 9.302 c 0.178 0 0.323 0.145 0.323 0.323 c 0 0.179 -0.145 0.324 -0.323 0.324 c -0.18 0 -0.325 -0.146 -0.325 -0.324 C 25.815 9.447 25.961 9.302 26.141 9.302 Z M 28.409 9.488 c 0.016 0.029 0.033 0.059 0.051 0.086 c -0.51 0.047 -0.913 0.473 -0.913 0.996 c 0 0.373 0.205 0.694 0.506 0.868 c -0.363 0.208 -0.608 0.598 -0.608 1.045 c 0 0.555 0.378 1.022 0.891 1.161 c -0.019 0.118 -0.019 0.241 0.005 0.364 c 0 0 0.02 0.056 0.038 0.104 c -0.063 0 -0.131 -0.012 -0.192 0 c -0.563 0.11 -0.932 0.658 -0.821 1.222 c 0.109 0.562 0.658 0.931 1.221 0.82 c 0.428 -0.083 0.741 -0.422 0.818 -0.826 c 0.024 0.078 0.075 0.289 0.085 0.343 c 0.114 0.579 -0.266 1.144 -0.845 1.257 c -0.541 0.106 -1.075 -0.057 -1.458 -0.398 c -0.142 0.493 -0.504 0.916 -1.019 1.117 c -0.516 0.202 -1.094 -0.027 -1.342 -0.51 c 0.065 -0.055 0.122 -0.118 0.173 -0.187 c 0.858 0.312 1.296 -0.335 1.372 -0.513 c 0.318 -0.742 -0.168 -1.51 -0.954 -1.517 c -0.251 -0.002 -0.483 0.088 -0.665 0.236 c -0.02 0.014 -0.04 0.029 -0.061 0.042 c -0.006 -0.025 -0.065 -0.405 -0.559 -0.674 c 0.042 -0.125 0.096 -0.267 0.107 -0.479 c 0.034 -0.607 -0.037 -0.83 0.379 -1.785 C 25.133 11.219 26.251 10.176 28.409 9.488 Z M 24.808 10.177 c 0.216 0 0.393 0.176 0.393 0.394 c 0 0.216 -0.176 0.392 -0.393 0.392 c -0.218 0 -0.395 -0.176 -0.395 -0.392 C 24.414 10.353 24.59 10.177 24.808 10.177 Z M 23.159 12.023 c 0 -0.308 0.25 -0.558 0.557 -0.558 c 0.309 0 0.56 0.25 0.56 0.558 c 0 0.308 -0.251 0.558 -0.56 0.558 C 23.409 12.581 23.159 12.332 23.159 12.023 Z M 23.118 13.318 c 0.408 0 0.741 0.332 0.741 0.74 c 0 0.133 -0.039 0.256 -0.1 0.364 c -0.028 -0.002 -0.056 -0.005 -0.085 -0.005 c -0.324 0 -0.612 0.147 -0.807 0.376 c -0.229 -0.142 -0.488 -0.467 -0.488 -0.735 C 22.378 13.65 22.71 13.318 23.118 13.318 Z" 
/>		 <path fill="#ffffff" d="M 42.613 21.325 c 0.099 0 0.191 -0.06 0.229 -0.158 c 0.045 -0.126 -0.018 -0.266 -0.144 -0.312 c -2.427 -0.899 -4.987 -1.355 -7.615 -1.355 h -0.169 c -2.625 0 -5.186 0.456 -7.612 1.355 c -0.126 0.047 -0.19 0.186 -0.144 0.312 c 0.046 0.125 0.186 0.19 0.312 0.144 c 2.373 -0.879 4.877 -1.326 7.444 -1.326 h 0.169 c 2.569 0 5.073 0.446 7.446 1.326 C 42.557 21.32 42.586 21.325 42.613 21.325 Z" 
/>		 <path fill="#ffffff" d="M 44.079 19.912 l -0.354 -0.943 l -0.054 -0.144 L 43.217 18.9 c -2.487 -0.954 -5.105 -1.46 -7.789 -1.509 l -0.431 -0.246 l -0.428 0.246 c -2.683 0.048 -5.301 0.555 -7.788 1.509 l -0.455 -0.075 l -0.054 0.144 l -0.354 0.943 l 1.015 0.564 l 0.328 -0.389 c 2.307 -0.865 4.732 -1.333 7.217 -1.388 l 0.518 0.296 l 0.521 -0.296 c 2.486 0.056 4.911 0.523 7.219 1.388 l 0.326 0.389 L 44.079 19.912 Z M 26.849 20.002 c -0.139 -0.077 -0.324 -0.18 -0.467 -0.259 c 0.058 -0.153 0.132 -0.352 0.187 -0.5 c 0.168 0.028 0.503 0.083 0.808 0.134 C 27.178 19.612 26.958 19.872 26.849 20.002 Z M 31.129 18.786 l -0.814 0.167 c -0.224 0.046 -0.444 -0.098 -0.489 -0.321 c -0.046 -0.224 0.097 -0.443 0.322 -0.489 l 0.816 -0.168 c 0.225 -0.047 0.444 0.099 0.49 0.323 C 31.498 18.521 31.354 18.739 31.129 18.786 Z M 34.998 18.558 l -0.853 -0.487 l 0.854 -0.489 l 0.856 0.489 L 34.998 18.558 Z M 40.175 18.631 c -0.046 0.224 -0.265 0.368 -0.489 0.321 l -0.814 -0.167 c -0.225 -0.046 -0.369 -0.266 -0.324 -0.489 c 0.047 -0.224 0.266 -0.37 0.49 -0.323 l 0.815 0.168 C 40.078 18.188 40.221 18.407 40.175 18.631 Z M 42.623 19.375 c 0.305 -0.05 0.64 -0.105 0.809 -0.134 c 0.055 0.148 0.128 0.348 0.187 0.5 c -0.144 0.079 -0.329 0.182 -0.468 0.259 C 43.041 19.872 42.822 19.612 42.623 19.375 Z" 
/>	 </g> </g> </svg>
